solid CATIA STL
  facet normal  9.999999e-001  -0.000000e+000  0.000000e+000
    outer loop
      vertex  5.300000e+001 -2.200000e+000  2.000000e+001
      vertex  5.300000e+001 -2.520000e+001  2.000000e+001
      vertex  5.300000e+001 -2.200000e+000  0.000000e+000
    endloop
  endfacet
  facet normal  9.999999e-001  0.000000e+000  0.000000e+000
    outer loop
      vertex  5.300000e+001 -2.200000e+000  0.000000e+000
      vertex  5.300000e+001 -2.520000e+001  2.000000e+001
      vertex  5.300000e+001 -2.520000e+001  0.000000e+000
    endloop
  endfacet
  facet normal  0.000000e+000  1.000000e+000  0.000000e+000
    outer loop
      vertex  5.800000e+001 -2.620000e+001  1.000000e+001
      vertex  6.000000e+001 -2.620000e+001  2.000000e+001
      vertex  6.000000e+001 -2.620000e+001  0.000000e+000
    endloop
  endfacet
  facet normal  0.000000e+000  1.000000e+000  0.000000e+000
    outer loop
      vertex  5.400000e+001 -2.620000e+001  0.000000e+000
      vertex  5.400000e+001 -2.620000e+001  2.000000e+001
      vertex  5.500000e+001 -2.620000e+001  1.000000e+001
    endloop
  endfacet
  facet normal  0.000000e+000  1.000000e+000  0.000000e+000
    outer loop
      vertex  5.400000e+001 -2.620000e+001  0.000000e+000
      vertex  5.500000e+001 -2.620000e+001  1.000000e+001
      vertex  5.543934e+001 -2.620000e+001  8.939340e+000
    endloop
  endfacet
  facet normal  0.000000e+000  1.000000e+000  0.000000e+000
    outer loop
      vertex  5.400000e+001 -2.620000e+001  0.000000e+000
      vertex  5.543934e+001 -2.620000e+001  8.939340e+000
      vertex  5.650000e+001 -2.620000e+001  8.500000e+000
    endloop
  endfacet
  facet normal  -0.000000e+000  1.000000e+000  0.000000e+000
    outer loop
      vertex  5.400000e+001 -2.620000e+001  0.000000e+000
      vertex  5.650000e+001 -2.620000e+001  8.500000e+000
      vertex  5.756066e+001 -2.620000e+001  8.939340e+000
    endloop
  endfacet
  facet normal  -0.000000e+000  1.000000e+000  0.000000e+000
    outer loop
      vertex  5.400000e+001 -2.620000e+001  0.000000e+000
      vertex  5.756066e+001 -2.620000e+001  8.939340e+000
      vertex  5.800000e+001 -2.620000e+001  1.000000e+001
    endloop
  endfacet
  facet normal  0.000000e+000  1.000000e+000  0.000000e+000
    outer loop
      vertex  5.400000e+001 -2.620000e+001  0.000000e+000
      vertex  5.800000e+001 -2.620000e+001  1.000000e+001
      vertex  6.000000e+001 -2.620000e+001  0.000000e+000
    endloop
  endfacet
  facet normal  0.000000e+000  1.000000e+000  0.000000e+000
    outer loop
      vertex  5.400000e+001 -2.620000e+001  2.000000e+001
      vertex  6.000000e+001 -2.620000e+001  2.000000e+001
      vertex  5.800000e+001 -2.620000e+001  1.000000e+001
    endloop
  endfacet
  facet normal  0.000000e+000  1.000000e+000  0.000000e+000
    outer loop
      vertex  5.400000e+001 -2.620000e+001  2.000000e+001
      vertex  5.800000e+001 -2.620000e+001  1.000000e+001
      vertex  5.756066e+001 -2.620000e+001  1.106066e+001
    endloop
  endfacet
  facet normal  0.000000e+000  9.999999e-001  0.000000e+000
    outer loop
      vertex  5.400000e+001 -2.620000e+001  2.000000e+001
      vertex  5.756066e+001 -2.620000e+001  1.106066e+001
      vertex  5.650000e+001 -2.620000e+001  1.150000e+001
    endloop
  endfacet
  facet normal  0.000000e+000  1.000000e+000  0.000000e+000
    outer loop
      vertex  5.400000e+001 -2.620000e+001  2.000000e+001
      vertex  5.650000e+001 -2.620000e+001  1.150000e+001
      vertex  5.543934e+001 -2.620000e+001  1.106066e+001
    endloop
  endfacet
  facet normal  0.000000e+000  1.000000e+000  0.000000e+000
    outer loop
      vertex  5.400000e+001 -2.620000e+001  2.000000e+001
      vertex  5.543934e+001 -2.620000e+001  1.106066e+001
      vertex  5.500000e+001 -2.620000e+001  1.000000e+001
    endloop
  endfacet
  facet normal  0.000000e+000  0.000000e+000 -1.000000e+000
    outer loop
      vertex  1.950000e+001  2.000000e+000  0.000000e+000
      vertex  1.950000e+001 -2.000000e-001  0.000000e+000
      vertex  1.150000e+001  0.000000e+000  0.000000e+000
    endloop
  endfacet
  facet normal  -0.000000e+000  0.000000e+000 -1.000000e+000
    outer loop
      vertex  1.950000e+001  2.000000e+000  0.000000e+000
      vertex  1.150000e+001  0.000000e+000  0.000000e+000
      vertex -1.150000e+001 -1.865175e-014  0.000000e+000
    endloop
  endfacet
  facet normal  -0.000000e+000  0.000000e+000 -1.000000e+000
    outer loop
      vertex  1.950000e+001  2.000000e+000  0.000000e+000
      vertex -1.150000e+001 -1.865175e-014  0.000000e+000
      vertex -1.950000e+001 -2.000000e-001  0.000000e+000
    endloop
  endfacet
  facet normal  0.000000e+000  0.000000e+000 -1.000000e+000
    outer loop
      vertex  1.950000e+001  2.000000e+000  0.000000e+000
      vertex -1.950000e+001 -2.000000e-001  0.000000e+000
      vertex -1.950000e+001  2.000000e+000  0.000000e+000
    endloop
  endfacet
  facet normal  0.000000e+000  0.000000e+000 -1.000000e+000
    outer loop
      vertex  1.950000e+001  2.000000e+000  0.000000e+000
      vertex -1.950000e+001  2.000000e+000  0.000000e+000
      vertex -1.920711e+001  2.707107e+000  0.000000e+000
    endloop
  endfacet
  facet normal  0.000000e+000  0.000000e+000 -1.000000e+000
    outer loop
      vertex  1.950000e+001  2.000000e+000  0.000000e+000
      vertex -1.920711e+001  2.707107e+000  0.000000e+000
      vertex  1.920711e+001  2.707107e+000  0.000000e+000
    endloop
  endfacet
  facet normal  0.000000e+000  0.000000e+000 -1.000000e+000
    outer loop
      vertex -1.150000e+001 -4.200000e+000  0.000000e+000
      vertex -5.000000e+001 -4.200000e+000  0.000000e+000
      vertex -5.300000e+001 -2.200000e+000  0.000000e+000
    endloop
  endfacet
  facet normal  0.000000e+000  0.000000e+000 -1.000000e+000
    outer loop
      vertex -1.150000e+001 -4.200000e+000  0.000000e+000
      vertex -5.300000e+001 -2.200000e+000  0.000000e+000
      vertex -5.270711e+001 -1.492893e+000  0.000000e+000
    endloop
  endfacet
  facet normal  0.000000e+000  0.000000e+000 -1.000000e+000
    outer loop
      vertex -1.150000e+001 -4.200000e+000  0.000000e+000
      vertex -5.270711e+001 -1.492893e+000  0.000000e+000
      vertex -5.200000e+001 -1.200000e+000  0.000000e+000
    endloop
  endfacet
  facet normal  0.000000e+000  0.000000e+000 -1.000000e+000
    outer loop
      vertex -1.150000e+001 -4.200000e+000  0.000000e+000
      vertex -5.200000e+001 -1.200000e+000  0.000000e+000
      vertex -2.050000e+001 -1.200000e+000  0.000000e+000
    endloop
  endfacet
  facet normal  0.000000e+000  0.000000e+000 -1.000000e+000
    outer loop
      vertex -1.150000e+001 -4.200000e+000  0.000000e+000
      vertex -2.050000e+001 -1.200000e+000  0.000000e+000
      vertex -1.979289e+001 -9.071068e-001  0.000000e+000
    endloop
  endfacet
  facet normal  0.000000e+000  0.000000e+000 -1.000000e+000
    outer loop
      vertex -1.150000e+001 -4.200000e+000  0.000000e+000
      vertex -1.979289e+001 -9.071068e-001  0.000000e+000
      vertex -1.950000e+001 -2.000000e-001  0.000000e+000
    endloop
  endfacet
  facet normal  0.000000e+000  0.000000e+000 -1.000000e+000
    outer loop
      vertex -1.150000e+001 -4.200000e+000  0.000000e+000
      vertex -1.950000e+001 -2.000000e-001  0.000000e+000
      vertex -1.150000e+001 -1.865175e-014  0.000000e+000
    endloop
  endfacet
  facet normal  0.000000e+000  0.000000e+000 -1.000000e+000
    outer loop
      vertex -5.000000e+001 -2.920000e+001  0.000000e+000
      vertex -6.000000e+001 -2.920000e+001  0.000000e+000
      vertex -6.000000e+001 -2.620000e+001  0.000000e+000
    endloop
  endfacet
  facet normal  0.000000e+000  0.000000e+000 -1.000000e+000
    outer loop
      vertex -5.000000e+001 -2.920000e+001  0.000000e+000
      vertex -6.000000e+001 -2.620000e+001  0.000000e+000
      vertex -5.400000e+001 -2.620000e+001  0.000000e+000
    endloop
  endfacet
  facet normal  0.000000e+000  0.000000e+000 -1.000000e+000
    outer loop
      vertex -5.000000e+001 -2.920000e+001  0.000000e+000
      vertex -5.400000e+001 -2.620000e+001  0.000000e+000
      vertex -5.329289e+001 -2.590711e+001  0.000000e+000
    endloop
  endfacet
  facet normal  0.000000e+000  0.000000e+000 -1.000000e+000
    outer loop
      vertex -5.000000e+001 -2.920000e+001  0.000000e+000
      vertex -5.329289e+001 -2.590711e+001  0.000000e+000
      vertex -5.300000e+001 -2.520000e+001  0.000000e+000
    endloop
  endfacet
  facet normal  0.000000e+000  0.000000e+000 -1.000000e+000
    outer loop
      vertex -5.000000e+001 -2.920000e+001  0.000000e+000
      vertex -5.300000e+001 -2.520000e+001  0.000000e+000
      vertex -5.300000e+001 -2.200000e+000  0.000000e+000
    endloop
  endfacet
  facet normal  0.000000e+000  0.000000e+000 -1.000000e+000
    outer loop
      vertex -5.000000e+001 -2.920000e+001  0.000000e+000
      vertex -5.300000e+001 -2.200000e+000  0.000000e+000
      vertex -5.000000e+001 -4.200000e+000  0.000000e+000
    endloop
  endfacet
  facet normal  0.000000e+000  0.000000e+000 -1.000000e+000
    outer loop
      vertex  1.150000e+001 -4.200000e+000  0.000000e+000
      vertex  1.150000e+001  0.000000e+000  0.000000e+000
      vertex  1.950000e+001 -2.000000e-001  0.000000e+000
    endloop
  endfacet
  facet normal  0.000000e+000  -0.000000e+000 -1.000000e+000
    outer loop
      vertex  1.150000e+001 -4.200000e+000  0.000000e+000
      vertex  1.950000e+001 -2.000000e-001  0.000000e+000
      vertex  1.979289e+001 -9.071068e-001  0.000000e+000
    endloop
  endfacet
  facet normal  0.000000e+000  -0.000000e+000 -1.000000e+000
    outer loop
      vertex  1.150000e+001 -4.200000e+000  0.000000e+000
      vertex  1.979289e+001 -9.071068e-001  0.000000e+000
      vertex  2.050000e+001 -1.200000e+000  0.000000e+000
    endloop
  endfacet
  facet normal  0.000000e+000  -0.000000e+000 -1.000000e+000
    outer loop
      vertex  1.150000e+001 -4.200000e+000  0.000000e+000
      vertex  2.050000e+001 -1.200000e+000  0.000000e+000
      vertex  5.200000e+001 -1.200000e+000  0.000000e+000
    endloop
  endfacet
  facet normal  0.000000e+000  -0.000000e+000 -1.000000e+000
    outer loop
      vertex  1.150000e+001 -4.200000e+000  0.000000e+000
      vertex  5.200000e+001 -1.200000e+000  0.000000e+000
      vertex  5.270711e+001 -1.492893e+000  0.000000e+000
    endloop
  endfacet
  facet normal  0.000000e+000  -0.000000e+000 -1.000000e+000
    outer loop
      vertex  1.150000e+001 -4.200000e+000  0.000000e+000
      vertex  5.270711e+001 -1.492893e+000  0.000000e+000
      vertex  5.300000e+001 -2.200000e+000  0.000000e+000
    endloop
  endfacet
  facet normal  0.000000e+000  0.000000e+000 -1.000000e+000
    outer loop
      vertex  1.150000e+001 -4.200000e+000  0.000000e+000
      vertex  5.300000e+001 -2.200000e+000  0.000000e+000
      vertex  5.000000e+001 -4.200000e+000  0.000000e+000
    endloop
  endfacet
  facet normal  0.000000e+000  0.000000e+000 -1.000000e+000
    outer loop
      vertex  5.000000e+001 -2.920000e+001  0.000000e+000
      vertex  5.000000e+001 -4.200000e+000  0.000000e+000
      vertex  5.300000e+001 -2.200000e+000  0.000000e+000
    endloop
  endfacet
  facet normal  0.000000e+000  -0.000000e+000 -1.000000e+000
    outer loop
      vertex  5.000000e+001 -2.920000e+001  0.000000e+000
      vertex  5.300000e+001 -2.200000e+000  0.000000e+000
      vertex  5.300000e+001 -2.520000e+001  0.000000e+000
    endloop
  endfacet
  facet normal  0.000000e+000  -0.000000e+000 -1.000000e+000
    outer loop
      vertex  5.000000e+001 -2.920000e+001  0.000000e+000
      vertex  5.300000e+001 -2.520000e+001  0.000000e+000
      vertex  5.329289e+001 -2.590711e+001  0.000000e+000
    endloop
  endfacet
  facet normal  0.000000e+000  -0.000000e+000 -1.000000e+000
    outer loop
      vertex  5.000000e+001 -2.920000e+001  0.000000e+000
      vertex  5.329289e+001 -2.590711e+001  0.000000e+000
      vertex  5.400000e+001 -2.620000e+001  0.000000e+000
    endloop
  endfacet
  facet normal  0.000000e+000  -0.000000e+000 -1.000000e+000
    outer loop
      vertex  5.000000e+001 -2.920000e+001  0.000000e+000
      vertex  5.400000e+001 -2.620000e+001  0.000000e+000
      vertex  6.000000e+001 -2.620000e+001  0.000000e+000
    endloop
  endfacet
  facet normal  0.000000e+000  -0.000000e+000 -1.000000e+000
    outer loop
      vertex  5.000000e+001 -2.920000e+001  0.000000e+000
      vertex  6.000000e+001 -2.620000e+001  0.000000e+000
      vertex  6.000000e+001 -2.920000e+001  0.000000e+000
    endloop
  endfacet
  facet normal  0.000000e+000  -0.000000e+000 -1.000000e+000
    outer loop
      vertex -1.920711e+001  2.707107e+000  0.000000e+000
      vertex -1.850000e+001  3.000000e+000  0.000000e+000
      vertex  1.920711e+001  2.707107e+000  0.000000e+000
    endloop
  endfacet
  facet normal  0.000000e+000  0.000000e+000 -9.999999e-001
    outer loop
      vertex  1.920711e+001  2.707107e+000  0.000000e+000
      vertex -1.850000e+001  3.000000e+000  0.000000e+000
      vertex  1.850000e+001  3.000000e+000  0.000000e+000
    endloop
  endfacet
  facet normal  0.000000e+000  0.000000e+000  1.000000e+000
    outer loop
      vertex  1.950000e+001  2.000000e+000  2.000000e+001
      vertex  1.920711e+001  2.707107e+000  2.000000e+001
      vertex -1.920711e+001  2.707107e+000  2.000000e+001
    endloop
  endfacet
  facet normal  0.000000e+000  0.000000e+000  1.000000e+000
    outer loop
      vertex  1.950000e+001  2.000000e+000  2.000000e+001
      vertex -1.920711e+001  2.707107e+000  2.000000e+001
      vertex -1.950000e+001  2.000000e+000  2.000000e+001
    endloop
  endfacet
  facet normal  -0.000000e+000  0.000000e+000  1.000000e+000
    outer loop
      vertex  1.950000e+001  2.000000e+000  2.000000e+001
      vertex -1.950000e+001  2.000000e+000  2.000000e+001
      vertex -1.950000e+001 -2.000000e-001  2.000000e+001
    endloop
  endfacet
  facet normal  0.000000e+000  0.000000e+000  1.000000e+000
    outer loop
      vertex  1.950000e+001  2.000000e+000  2.000000e+001
      vertex -1.950000e+001 -2.000000e-001  2.000000e+001
      vertex -1.150000e+001 -1.865175e-014  2.000000e+001
    endloop
  endfacet
  facet normal  0.000000e+000  0.000000e+000  1.000000e+000
    outer loop
      vertex  1.950000e+001  2.000000e+000  2.000000e+001
      vertex -1.150000e+001 -1.865175e-014  2.000000e+001
      vertex  1.150000e+001  0.000000e+000  2.000000e+001
    endloop
  endfacet
  facet normal  -0.000000e+000  0.000000e+000  1.000000e+000
    outer loop
      vertex  1.950000e+001  2.000000e+000  2.000000e+001
      vertex  1.150000e+001  0.000000e+000  2.000000e+001
      vertex  1.950000e+001 -2.000000e-001  2.000000e+001
    endloop
  endfacet
  facet normal  0.000000e+000  0.000000e+000  1.000000e+000
    outer loop
      vertex -1.150000e+001 -4.200000e+000  2.000000e+001
      vertex -1.150000e+001 -1.865175e-014  2.000000e+001
      vertex -1.950000e+001 -2.000000e-001  2.000000e+001
    endloop
  endfacet
  facet normal  0.000000e+000  0.000000e+000  1.000000e+000
    outer loop
      vertex -1.150000e+001 -4.200000e+000  2.000000e+001
      vertex -1.950000e+001 -2.000000e-001  2.000000e+001
      vertex -1.979289e+001 -9.071068e-001  2.000000e+001
    endloop
  endfacet
  facet normal  0.000000e+000  0.000000e+000  1.000000e+000
    outer loop
      vertex -1.150000e+001 -4.200000e+000  2.000000e+001
      vertex -1.979289e+001 -9.071068e-001  2.000000e+001
      vertex -2.050000e+001 -1.200000e+000  2.000000e+001
    endloop
  endfacet
  facet normal  0.000000e+000  0.000000e+000  1.000000e+000
    outer loop
      vertex -1.150000e+001 -4.200000e+000  2.000000e+001
      vertex -2.050000e+001 -1.200000e+000  2.000000e+001
      vertex -5.200000e+001 -1.200000e+000  2.000000e+001
    endloop
  endfacet
  facet normal  0.000000e+000  0.000000e+000  1.000000e+000
    outer loop
      vertex -1.150000e+001 -4.200000e+000  2.000000e+001
      vertex -5.200000e+001 -1.200000e+000  2.000000e+001
      vertex -5.270711e+001 -1.492893e+000  2.000000e+001
    endloop
  endfacet
  facet normal  0.000000e+000  0.000000e+000  1.000000e+000
    outer loop
      vertex -1.150000e+001 -4.200000e+000  2.000000e+001
      vertex -5.270711e+001 -1.492893e+000  2.000000e+001
      vertex -5.300000e+001 -2.200000e+000  2.000000e+001
    endloop
  endfacet
  facet normal  0.000000e+000  0.000000e+000  1.000000e+000
    outer loop
      vertex -1.150000e+001 -4.200000e+000  2.000000e+001
      vertex -5.300000e+001 -2.200000e+000  2.000000e+001
      vertex -5.000000e+001 -4.200000e+000  2.000000e+001
    endloop
  endfacet
  facet normal  0.000000e+000  0.000000e+000  1.000000e+000
    outer loop
      vertex -5.000000e+001 -2.920000e+001  2.000000e+001
      vertex -5.000000e+001 -4.200000e+000  2.000000e+001
      vertex -5.300000e+001 -2.200000e+000  2.000000e+001
    endloop
  endfacet
  facet normal  0.000000e+000  0.000000e+000  1.000000e+000
    outer loop
      vertex -5.000000e+001 -2.920000e+001  2.000000e+001
      vertex -5.300000e+001 -2.200000e+000  2.000000e+001
      vertex -5.300000e+001 -2.520000e+001  2.000000e+001
    endloop
  endfacet
  facet normal  0.000000e+000  0.000000e+000  1.000000e+000
    outer loop
      vertex -5.000000e+001 -2.920000e+001  2.000000e+001
      vertex -5.300000e+001 -2.520000e+001  2.000000e+001
      vertex -5.329289e+001 -2.590711e+001  2.000000e+001
    endloop
  endfacet
  facet normal  0.000000e+000  0.000000e+000  1.000000e+000
    outer loop
      vertex -5.000000e+001 -2.920000e+001  2.000000e+001
      vertex -5.329289e+001 -2.590711e+001  2.000000e+001
      vertex -5.400000e+001 -2.620000e+001  2.000000e+001
    endloop
  endfacet
  facet normal  0.000000e+000  0.000000e+000  1.000000e+000
    outer loop
      vertex -5.000000e+001 -2.920000e+001  2.000000e+001
      vertex -5.400000e+001 -2.620000e+001  2.000000e+001
      vertex -6.000000e+001 -2.620000e+001  2.000000e+001
    endloop
  endfacet
  facet normal  0.000000e+000  0.000000e+000  1.000000e+000
    outer loop
      vertex -5.000000e+001 -2.920000e+001  2.000000e+001
      vertex -6.000000e+001 -2.620000e+001  2.000000e+001
      vertex -6.000000e+001 -2.920000e+001  2.000000e+001
    endloop
  endfacet
  facet normal  0.000000e+000  -0.000000e+000  1.000000e+000
    outer loop
      vertex  1.150000e+001 -4.200000e+000  2.000000e+001
      vertex  5.000000e+001 -4.200000e+000  2.000000e+001
      vertex  5.300000e+001 -2.200000e+000  2.000000e+001
    endloop
  endfacet
  facet normal  0.000000e+000  0.000000e+000  1.000000e+000
    outer loop
      vertex  1.150000e+001 -4.200000e+000  2.000000e+001
      vertex  5.300000e+001 -2.200000e+000  2.000000e+001
      vertex  5.270711e+001 -1.492893e+000  2.000000e+001
    endloop
  endfacet
  facet normal  0.000000e+000  0.000000e+000  1.000000e+000
    outer loop
      vertex  1.150000e+001 -4.200000e+000  2.000000e+001
      vertex  5.270711e+001 -1.492893e+000  2.000000e+001
      vertex  5.200000e+001 -1.200000e+000  2.000000e+001
    endloop
  endfacet
  facet normal  0.000000e+000  0.000000e+000  1.000000e+000
    outer loop
      vertex  1.150000e+001 -4.200000e+000  2.000000e+001
      vertex  5.200000e+001 -1.200000e+000  2.000000e+001
      vertex  2.050000e+001 -1.200000e+000  2.000000e+001
    endloop
  endfacet
  facet normal  0.000000e+000  0.000000e+000  1.000000e+000
    outer loop
      vertex  1.150000e+001 -4.200000e+000  2.000000e+001
      vertex  2.050000e+001 -1.200000e+000  2.000000e+001
      vertex  1.979289e+001 -9.071068e-001  2.000000e+001
    endloop
  endfacet
  facet normal  0.000000e+000  0.000000e+000  1.000000e+000
    outer loop
      vertex  1.150000e+001 -4.200000e+000  2.000000e+001
      vertex  1.979289e+001 -9.071068e-001  2.000000e+001
      vertex  1.950000e+001 -2.000000e-001  2.000000e+001
    endloop
  endfacet
  facet normal  0.000000e+000  0.000000e+000  1.000000e+000
    outer loop
      vertex  1.150000e+001 -4.200000e+000  2.000000e+001
      vertex  1.950000e+001 -2.000000e-001  2.000000e+001
      vertex  1.150000e+001  0.000000e+000  2.000000e+001
    endloop
  endfacet
  facet normal  0.000000e+000  -0.000000e+000  1.000000e+000
    outer loop
      vertex  5.000000e+001 -2.920000e+001  2.000000e+001
      vertex  6.000000e+001 -2.920000e+001  2.000000e+001
      vertex  6.000000e+001 -2.620000e+001  2.000000e+001
    endloop
  endfacet
  facet normal  0.000000e+000  0.000000e+000  1.000000e+000
    outer loop
      vertex  5.000000e+001 -2.920000e+001  2.000000e+001
      vertex  6.000000e+001 -2.620000e+001  2.000000e+001
      vertex  5.400000e+001 -2.620000e+001  2.000000e+001
    endloop
  endfacet
  facet normal  0.000000e+000  0.000000e+000  1.000000e+000
    outer loop
      vertex  5.000000e+001 -2.920000e+001  2.000000e+001
      vertex  5.400000e+001 -2.620000e+001  2.000000e+001
      vertex  5.329289e+001 -2.590711e+001  2.000000e+001
    endloop
  endfacet
  facet normal  0.000000e+000  0.000000e+000  1.000000e+000
    outer loop
      vertex  5.000000e+001 -2.920000e+001  2.000000e+001
      vertex  5.329289e+001 -2.590711e+001  2.000000e+001
      vertex  5.300000e+001 -2.520000e+001  2.000000e+001
    endloop
  endfacet
  facet normal  0.000000e+000  -0.000000e+000  1.000000e+000
    outer loop
      vertex  5.000000e+001 -2.920000e+001  2.000000e+001
      vertex  5.300000e+001 -2.520000e+001  2.000000e+001
      vertex  5.300000e+001 -2.200000e+000  2.000000e+001
    endloop
  endfacet
  facet normal  0.000000e+000  0.000000e+000  1.000000e+000
    outer loop
      vertex  5.000000e+001 -2.920000e+001  2.000000e+001
      vertex  5.300000e+001 -2.200000e+000  2.000000e+001
      vertex  5.000000e+001 -4.200000e+000  2.000000e+001
    endloop
  endfacet
  facet normal  0.000000e+000  0.000000e+000  1.000000e+000
    outer loop
      vertex -1.920711e+001  2.707107e+000  2.000000e+001
      vertex  1.920711e+001  2.707107e+000  2.000000e+001
      vertex -1.850000e+001  3.000000e+000  2.000000e+001
    endloop
  endfacet
  facet normal  -0.000000e+000  0.000000e+000  9.999999e-001
    outer loop
      vertex -1.850000e+001  3.000000e+000  2.000000e+001
      vertex  1.920711e+001  2.707107e+000  2.000000e+001
      vertex  1.850000e+001  3.000000e+000  2.000000e+001
    endloop
  endfacet
  facet normal  3.826843e-001  9.238791e-001  0.000000e+000
    outer loop
      vertex  5.400000e+001 -2.620000e+001  0.000000e+000
      vertex  5.329289e+001 -2.590711e+001  0.000000e+000
      vertex  5.400000e+001 -2.620000e+001  2.000000e+001
    endloop
  endfacet
  facet normal  3.826843e-001  9.238791e-001  0.000000e+000
    outer loop
      vertex  5.400000e+001 -2.620000e+001  2.000000e+001
      vertex  5.329289e+001 -2.590711e+001  0.000000e+000
      vertex  5.329289e+001 -2.590711e+001  2.000000e+001
    endloop
  endfacet
  facet normal  9.238797e-001  3.826831e-001  0.000000e+000
    outer loop
      vertex  5.329289e+001 -2.590711e+001  0.000000e+000
      vertex  5.300000e+001 -2.520000e+001  0.000000e+000
      vertex  5.329289e+001 -2.590711e+001  2.000000e+001
    endloop
  endfacet
  facet normal  9.238797e-001  3.826831e-001  0.000000e+000
    outer loop
      vertex  5.329289e+001 -2.590711e+001  2.000000e+001
      vertex  5.300000e+001 -2.520000e+001  0.000000e+000
      vertex  5.300000e+001 -2.520000e+001  2.000000e+001
    endloop
  endfacet
  facet normal  0.000000e+000  1.000000e+000  0.000000e+000
    outer loop
      vertex  2.050000e+001 -1.200000e+000  2.000000e+001
      vertex  5.200000e+001 -1.200000e+000  2.000000e+001
      vertex  2.050000e+001 -1.200000e+000  0.000000e+000
    endloop
  endfacet
  facet normal  0.000000e+000  1.000000e+000  0.000000e+000
    outer loop
      vertex  2.050000e+001 -1.200000e+000  0.000000e+000
      vertex  5.200000e+001 -1.200000e+000  2.000000e+001
      vertex  5.200000e+001 -1.200000e+000  0.000000e+000
    endloop
  endfacet
  facet normal  3.826830e-001  9.238797e-001  0.000000e+000
    outer loop
      vertex  5.200000e+001 -1.200000e+000  0.000000e+000
      vertex  5.200000e+001 -1.200000e+000  2.000000e+001
      vertex  5.270711e+001 -1.492893e+000  0.000000e+000
    endloop
  endfacet
  facet normal  3.826830e-001  9.238797e-001  -0.000000e+000
    outer loop
      vertex  5.270711e+001 -1.492893e+000  0.000000e+000
      vertex  5.200000e+001 -1.200000e+000  2.000000e+001
      vertex  5.270711e+001 -1.492893e+000  2.000000e+001
    endloop
  endfacet
  facet normal  9.238799e-001  3.826826e-001  0.000000e+000
    outer loop
      vertex  5.270711e+001 -1.492893e+000  0.000000e+000
      vertex  5.270711e+001 -1.492893e+000  2.000000e+001
      vertex  5.300000e+001 -2.200000e+000  0.000000e+000
    endloop
  endfacet
  facet normal  9.238799e-001  3.826826e-001  -0.000000e+000
    outer loop
      vertex  5.300000e+001 -2.200000e+000  0.000000e+000
      vertex  5.270711e+001 -1.492893e+000  2.000000e+001
      vertex  5.300000e+001 -2.200000e+000  2.000000e+001
    endloop
  endfacet
  facet normal  1.000000e+000  0.000000e+000  0.000000e+000
    outer loop
      vertex  1.950000e+001  2.000000e+000  0.000000e+000
      vertex  1.950000e+001  2.000000e+000  2.000000e+001
      vertex  1.950000e+001 -2.000000e-001  0.000000e+000
    endloop
  endfacet
  facet normal  1.000000e+000  0.000000e+000  0.000000e+000
    outer loop
      vertex  1.950000e+001 -2.000000e-001  0.000000e+000
      vertex  1.950000e+001  2.000000e+000  2.000000e+001
      vertex  1.950000e+001 -2.000000e-001  2.000000e+001
    endloop
  endfacet
  facet normal  3.826832e-001  9.238796e-001  0.000000e+000
    outer loop
      vertex  2.050000e+001 -1.200000e+000  0.000000e+000
      vertex  1.979289e+001 -9.071068e-001  0.000000e+000
      vertex  2.050000e+001 -1.200000e+000  2.000000e+001
    endloop
  endfacet
  facet normal  3.826832e-001  9.238796e-001  0.000000e+000
    outer loop
      vertex  2.050000e+001 -1.200000e+000  2.000000e+001
      vertex  1.979289e+001 -9.071068e-001  0.000000e+000
      vertex  1.979289e+001 -9.071068e-001  2.000000e+001
    endloop
  endfacet
  facet normal  9.238799e-001  3.826826e-001  0.000000e+000
    outer loop
      vertex  1.979289e+001 -9.071068e-001  0.000000e+000
      vertex  1.950000e+001 -2.000000e-001  0.000000e+000
      vertex  1.979289e+001 -9.071068e-001  2.000000e+001
    endloop
  endfacet
  facet normal  9.238799e-001  3.826826e-001  0.000000e+000
    outer loop
      vertex  1.979289e+001 -9.071068e-001  2.000000e+001
      vertex  1.950000e+001 -2.000000e-001  0.000000e+000
      vertex  1.950000e+001 -2.000000e-001  2.000000e+001
    endloop
  endfacet
  facet normal  0.000000e+000  1.000000e+000  0.000000e+000
    outer loop
      vertex -1.346612e+001  3.000000e+000  1.088388e+001
      vertex -1.132323e+001  3.000000e+000  8.554314e+000
      vertex -1.310000e+001  3.000000e+000  1.000000e+001
    endloop
  endfacet
  facet normal  -0.000000e+000  1.000000e+000  0.000000e+000
    outer loop
      vertex -1.132323e+001  3.000000e+000  8.554314e+000
      vertex -1.346612e+001  3.000000e+000  9.116117e+000
      vertex -1.310000e+001  3.000000e+000  1.000000e+001
    endloop
  endfacet
  facet normal  0.000000e+000  1.000000e+000  0.000000e+000
    outer loop
      vertex  1.569875e+000  3.000000e+000  7.735168e+000
      vertex -2.017286e+000  3.000000e+000  5.114234e+000
      vertex -1.366071e-001  3.000000e+000  7.310387e+000
    endloop
  endfacet
  facet normal  0.000000e+000  9.999999e-001  0.000000e+000
    outer loop
      vertex -2.017286e+000  3.000000e+000  1.488577e+001
      vertex  1.569875e+000  3.000000e+000  1.226483e+001
      vertex -1.366071e-001  3.000000e+000  1.268961e+001
    endloop
  endfacet
  facet normal  0.000000e+000  9.999999e-001  0.000000e+000
    outer loop
      vertex  1.310000e+001  3.000000e+000  1.000000e+001
      vertex -2.017286e+000  3.000000e+000  5.114234e+000
      vertex  1.569875e+000  3.000000e+000  7.735168e+000
    endloop
  endfacet
  facet normal  0.000000e+000  1.000000e+000  0.000000e+000
    outer loop
      vertex  1.310000e+001  3.000000e+000  1.000000e+001
      vertex  1.569875e+000  3.000000e+000  7.735168e+000
      vertex  2.652816e+000  3.000000e+000  9.120722e+000
    endloop
  endfacet
  facet normal  0.000000e+000  1.000000e+000  0.000000e+000
    outer loop
      vertex  1.310000e+001  3.000000e+000  1.000000e+001
      vertex  2.652816e+000  3.000000e+000  9.120722e+000
      vertex  2.652816e+000  3.000000e+000  1.087928e+001
    endloop
  endfacet
  facet normal  -0.000000e+000  9.999999e-001  -0.000000e+000
    outer loop
      vertex  1.310000e+001  3.000000e+000  1.000000e+001
      vertex  2.652816e+000  3.000000e+000  1.087928e+001
      vertex  1.569875e+000  3.000000e+000  1.226483e+001
    endloop
  endfacet
  facet normal  -0.000000e+000  1.000000e+000  -0.000000e+000
    outer loop
      vertex  1.310000e+001  3.000000e+000  1.000000e+001
      vertex  1.569875e+000  3.000000e+000  1.226483e+001
      vertex -2.017286e+000  3.000000e+000  1.488577e+001
    endloop
  endfacet
  facet normal  0.000000e+000  1.000000e+000  -0.000000e+000
    outer loop
      vertex  1.850000e+001  3.000000e+000  2.000000e+001
      vertex  1.850000e+001  3.000000e+000  0.000000e+000
      vertex  1.560000e+001  3.000000e+000  1.000000e+001
    endloop
  endfacet
  facet normal  0.000000e+000  9.999999e-001  -0.000000e+000
    outer loop
      vertex  1.850000e+001  3.000000e+000  2.000000e+001
      vertex  1.560000e+001  3.000000e+000  1.000000e+001
      vertex  1.523388e+001  3.000000e+000  1.088388e+001
    endloop
  endfacet
  facet normal  0.000000e+000  1.000000e+000  -0.000000e+000
    outer loop
      vertex  1.850000e+001  3.000000e+000  2.000000e+001
      vertex  1.523388e+001  3.000000e+000  1.088388e+001
      vertex  1.435000e+001  3.000000e+000  1.125000e+001
    endloop
  endfacet
  facet normal  0.000000e+000  1.000000e+000  -0.000000e+000
    outer loop
      vertex  1.850000e+001  3.000000e+000  2.000000e+001
      vertex  1.435000e+001  3.000000e+000  1.125000e+001
      vertex -1.850000e+001  3.000000e+000  2.000000e+001
    endloop
  endfacet
  facet normal  0.000000e+000  1.000000e+000  0.000000e+000
    outer loop
      vertex -1.850000e+001  3.000000e+000  2.000000e+001
      vertex -4.706732e+000  3.000000e+000  1.594733e+001
      vertex -7.580394e+000  3.000000e+000  1.562778e+001
    endloop
  endfacet
  facet normal  0.000000e+000  1.000000e+000  0.000000e+000
    outer loop
      vertex -1.850000e+001  3.000000e+000  2.000000e+001
      vertex -7.580394e+000  3.000000e+000  1.562778e+001
      vertex -9.970940e+000  3.000000e+000  1.400134e+001
    endloop
  endfacet
  facet normal  0.000000e+000  1.000000e+000  0.000000e+000
    outer loop
      vertex -1.850000e+001  3.000000e+000  2.000000e+001
      vertex -9.970940e+000  3.000000e+000  1.400134e+001
      vertex -1.132323e+001  3.000000e+000  1.144569e+001
    endloop
  endfacet
  facet normal  0.000000e+000  1.000000e+000  0.000000e+000
    outer loop
      vertex -1.850000e+001  3.000000e+000  2.000000e+001
      vertex -1.132323e+001  3.000000e+000  1.144569e+001
      vertex -1.132323e+001  3.000000e+000  8.554314e+000
    endloop
  endfacet
  facet normal  0.000000e+000  1.000000e+000  0.000000e+000
    outer loop
      vertex -1.850000e+001  3.000000e+000  2.000000e+001
      vertex -1.132323e+001  3.000000e+000  8.554314e+000
      vertex -1.346612e+001  3.000000e+000  1.088388e+001
    endloop
  endfacet
  facet normal  0.000000e+000  1.000000e+000  0.000000e+000
    outer loop
      vertex -1.850000e+001  3.000000e+000  2.000000e+001
      vertex -1.346612e+001  3.000000e+000  1.088388e+001
      vertex -1.435000e+001  3.000000e+000  1.125000e+001
    endloop
  endfacet
  facet normal  0.000000e+000  1.000000e+000  0.000000e+000
    outer loop
      vertex -1.850000e+001  3.000000e+000  2.000000e+001
      vertex -1.435000e+001  3.000000e+000  1.125000e+001
      vertex -1.523388e+001  3.000000e+000  1.088388e+001
    endloop
  endfacet
  facet normal  0.000000e+000  9.999999e-001  0.000000e+000
    outer loop
      vertex -1.850000e+001  3.000000e+000  2.000000e+001
      vertex -1.523388e+001  3.000000e+000  1.088388e+001
      vertex -1.560000e+001  3.000000e+000  1.000000e+001
    endloop
  endfacet
  facet normal  0.000000e+000  1.000000e+000  0.000000e+000
    outer loop
      vertex -1.850000e+001  3.000000e+000  2.000000e+001
      vertex -1.560000e+001  3.000000e+000  1.000000e+001
      vertex -1.850000e+001  3.000000e+000  0.000000e+000
    endloop
  endfacet
  facet normal  0.000000e+000  9.999999e-001  0.000000e+000
    outer loop
      vertex -1.850000e+001  3.000000e+000  0.000000e+000
      vertex -1.560000e+001  3.000000e+000  1.000000e+001
      vertex -1.523388e+001  3.000000e+000  9.116117e+000
    endloop
  endfacet
  facet normal  0.000000e+000  1.000000e+000  0.000000e+000
    outer loop
      vertex -1.850000e+001  3.000000e+000  0.000000e+000
      vertex -1.523388e+001  3.000000e+000  9.116117e+000
      vertex -1.435000e+001  3.000000e+000  8.750000e+000
    endloop
  endfacet
  facet normal  -0.000000e+000  1.000000e+000  0.000000e+000
    outer loop
      vertex -1.850000e+001  3.000000e+000  0.000000e+000
      vertex -1.435000e+001  3.000000e+000  8.750000e+000
      vertex -1.346612e+001  3.000000e+000  9.116117e+000
    endloop
  endfacet
  facet normal  0.000000e+000  1.000000e+000  0.000000e+000
    outer loop
      vertex -1.850000e+001  3.000000e+000  0.000000e+000
      vertex -1.346612e+001  3.000000e+000  9.116117e+000
      vertex -1.132323e+001  3.000000e+000  8.554314e+000
    endloop
  endfacet
  facet normal  0.000000e+000  1.000000e+000  0.000000e+000
    outer loop
      vertex -1.850000e+001  3.000000e+000  0.000000e+000
      vertex -1.132323e+001  3.000000e+000  8.554314e+000
      vertex -9.970940e+000  3.000000e+000  5.998662e+000
    endloop
  endfacet
  facet normal  0.000000e+000  1.000000e+000  0.000000e+000
    outer loop
      vertex -1.850000e+001  3.000000e+000  0.000000e+000
      vertex -9.970940e+000  3.000000e+000  5.998662e+000
      vertex -7.580394e+000  3.000000e+000  4.372215e+000
    endloop
  endfacet
  facet normal  0.000000e+000  1.000000e+000  0.000000e+000
    outer loop
      vertex -1.850000e+001  3.000000e+000  0.000000e+000
      vertex -7.580394e+000  3.000000e+000  4.372215e+000
      vertex -4.706732e+000  3.000000e+000  4.052670e+000
    endloop
  endfacet
  facet normal  0.000000e+000  1.000000e+000  0.000000e+000
    outer loop
      vertex  1.850000e+001  3.000000e+000  0.000000e+000
      vertex -1.850000e+001  3.000000e+000  0.000000e+000
      vertex  1.435000e+001  3.000000e+000  8.750000e+000
    endloop
  endfacet
  facet normal  -0.000000e+000  1.000000e+000  0.000000e+000
    outer loop
      vertex  1.850000e+001  3.000000e+000  0.000000e+000
      vertex  1.435000e+001  3.000000e+000  8.750000e+000
      vertex  1.523388e+001  3.000000e+000  9.116117e+000
    endloop
  endfacet
  facet normal  -0.000000e+000  9.999999e-001  0.000000e+000
    outer loop
      vertex  1.850000e+001  3.000000e+000  0.000000e+000
      vertex  1.523388e+001  3.000000e+000  9.116117e+000
      vertex  1.560000e+001  3.000000e+000  1.000000e+001
    endloop
  endfacet
  facet normal  -0.000000e+000  1.000000e+000  0.000000e+000
    outer loop
      vertex -1.850000e+001  3.000000e+000  0.000000e+000
      vertex -4.706732e+000  3.000000e+000  4.052670e+000
      vertex  1.435000e+001  3.000000e+000  8.750000e+000
    endloop
  endfacet
  facet normal  0.000000e+000  1.000000e+000  0.000000e+000
    outer loop
      vertex  1.435000e+001  3.000000e+000  8.750000e+000
      vertex -4.706732e+000  3.000000e+000  4.052670e+000
      vertex  1.346612e+001  3.000000e+000  9.116117e+000
    endloop
  endfacet
  facet normal  -0.000000e+000  1.000000e+000  0.000000e+000
    outer loop
      vertex -4.706732e+000  3.000000e+000  4.052670e+000
      vertex -2.017286e+000  3.000000e+000  5.114234e+000
      vertex  1.346612e+001  3.000000e+000  9.116117e+000
    endloop
  endfacet
  facet normal  0.000000e+000  1.000000e+000  0.000000e+000
    outer loop
      vertex  1.346612e+001  3.000000e+000  9.116117e+000
      vertex -2.017286e+000  3.000000e+000  5.114234e+000
      vertex  1.310000e+001  3.000000e+000  1.000000e+001
    endloop
  endfacet
  facet normal  0.000000e+000  1.000000e+000  -0.000000e+000
    outer loop
      vertex  1.435000e+001  3.000000e+000  1.125000e+001
      vertex  1.346612e+001  3.000000e+000  1.088388e+001
      vertex -1.850000e+001  3.000000e+000  2.000000e+001
    endloop
  endfacet
  facet normal  0.000000e+000  1.000000e+000  0.000000e+000
    outer loop
      vertex -1.850000e+001  3.000000e+000  2.000000e+001
      vertex  1.346612e+001  3.000000e+000  1.088388e+001
      vertex -4.706732e+000  3.000000e+000  1.594733e+001
    endloop
  endfacet
  facet normal  0.000000e+000  1.000000e+000  -0.000000e+000
    outer loop
      vertex  1.346612e+001  3.000000e+000  1.088388e+001
      vertex  1.310000e+001  3.000000e+000  1.000000e+001
      vertex -4.706732e+000  3.000000e+000  1.594733e+001
    endloop
  endfacet
  facet normal  0.000000e+000  1.000000e+000  0.000000e+000
    outer loop
      vertex -4.706732e+000  3.000000e+000  1.594733e+001
      vertex  1.310000e+001  3.000000e+000  1.000000e+001
      vertex -2.017286e+000  3.000000e+000  1.488577e+001
    endloop
  endfacet
  facet normal  3.826830e-001  9.238797e-001  0.000000e+000
    outer loop
      vertex  1.850000e+001  3.000000e+000  0.000000e+000
      vertex  1.850000e+001  3.000000e+000  2.000000e+001
      vertex  1.920711e+001  2.707107e+000  0.000000e+000
    endloop
  endfacet
  facet normal  3.826830e-001  9.238797e-001  -0.000000e+000
    outer loop
      vertex  1.920711e+001  2.707107e+000  0.000000e+000
      vertex  1.850000e+001  3.000000e+000  2.000000e+001
      vertex  1.920711e+001  2.707107e+000  2.000000e+001
    endloop
  endfacet
  facet normal  9.238799e-001  3.826826e-001  0.000000e+000
    outer loop
      vertex  1.920711e+001  2.707107e+000  0.000000e+000
      vertex  1.920711e+001  2.707107e+000  2.000000e+001
      vertex  1.950000e+001  2.000000e+000  0.000000e+000
    endloop
  endfacet
  facet normal  9.238799e-001  3.826826e-001  -0.000000e+000
    outer loop
      vertex  1.950000e+001  2.000000e+000  0.000000e+000
      vertex  1.920711e+001  2.707107e+000  2.000000e+001
      vertex  1.950000e+001  2.000000e+000  2.000000e+001
    endloop
  endfacet
  facet normal -9.999999e-001  0.000000e+000  0.000000e+000
    outer loop
      vertex -5.300000e+001 -2.200000e+000  2.000000e+001
      vertex -5.300000e+001 -2.200000e+000  0.000000e+000
      vertex -5.300000e+001 -2.520000e+001  2.000000e+001
    endloop
  endfacet
  facet normal -9.999999e-001  0.000000e+000  0.000000e+000
    outer loop
      vertex -5.300000e+001 -2.520000e+001  2.000000e+001
      vertex -5.300000e+001 -2.200000e+000  0.000000e+000
      vertex -5.300000e+001 -2.520000e+001  0.000000e+000
    endloop
  endfacet
  facet normal  0.000000e+000  1.000000e+000  -0.000000e+000
    outer loop
      vertex -5.400000e+001 -2.620000e+001  2.000000e+001
      vertex -5.800000e+001 -2.620000e+001  1.000000e+001
      vertex -6.000000e+001 -2.620000e+001  2.000000e+001
    endloop
  endfacet
  facet normal  0.000000e+000  1.000000e+000  0.000000e+000
    outer loop
      vertex -5.800000e+001 -2.620000e+001  1.000000e+001
      vertex -6.000000e+001 -2.620000e+001  0.000000e+000
      vertex -6.000000e+001 -2.620000e+001  2.000000e+001
    endloop
  endfacet
  facet normal  0.000000e+000  1.000000e+000  -0.000000e+000
    outer loop
      vertex -5.400000e+001 -2.620000e+001  2.000000e+001
      vertex -5.400000e+001 -2.620000e+001  0.000000e+000
      vertex -5.500000e+001 -2.620000e+001  1.000000e+001
    endloop
  endfacet
  facet normal  0.000000e+000  1.000000e+000  -0.000000e+000
    outer loop
      vertex -5.400000e+001 -2.620000e+001  2.000000e+001
      vertex -5.500000e+001 -2.620000e+001  1.000000e+001
      vertex -5.543934e+001 -2.620000e+001  1.106066e+001
    endloop
  endfacet
  facet normal  0.000000e+000  1.000000e+000  -0.000000e+000
    outer loop
      vertex -5.400000e+001 -2.620000e+001  2.000000e+001
      vertex -5.543934e+001 -2.620000e+001  1.106066e+001
      vertex -5.650000e+001 -2.620000e+001  1.150000e+001
    endloop
  endfacet
  facet normal  0.000000e+000  1.000000e+000  -0.000000e+000
    outer loop
      vertex -5.400000e+001 -2.620000e+001  2.000000e+001
      vertex -5.650000e+001 -2.620000e+001  1.150000e+001
      vertex -5.756066e+001 -2.620000e+001  1.106066e+001
    endloop
  endfacet
  facet normal  0.000000e+000  1.000000e+000  -0.000000e+000
    outer loop
      vertex -5.400000e+001 -2.620000e+001  2.000000e+001
      vertex -5.756066e+001 -2.620000e+001  1.106066e+001
      vertex -5.800000e+001 -2.620000e+001  1.000000e+001
    endloop
  endfacet
  facet normal  0.000000e+000  1.000000e+000  0.000000e+000
    outer loop
      vertex -5.400000e+001 -2.620000e+001  0.000000e+000
      vertex -6.000000e+001 -2.620000e+001  0.000000e+000
      vertex -5.800000e+001 -2.620000e+001  1.000000e+001
    endloop
  endfacet
  facet normal  0.000000e+000  1.000000e+000  0.000000e+000
    outer loop
      vertex -5.400000e+001 -2.620000e+001  0.000000e+000
      vertex -5.800000e+001 -2.620000e+001  1.000000e+001
      vertex -5.756066e+001 -2.620000e+001  8.939340e+000
    endloop
  endfacet
  facet normal  0.000000e+000  9.999999e-001  0.000000e+000
    outer loop
      vertex -5.400000e+001 -2.620000e+001  0.000000e+000
      vertex -5.756066e+001 -2.620000e+001  8.939340e+000
      vertex -5.650000e+001 -2.620000e+001  8.500000e+000
    endloop
  endfacet
  facet normal  -0.000000e+000  1.000000e+000  0.000000e+000
    outer loop
      vertex -5.400000e+001 -2.620000e+001  0.000000e+000
      vertex -5.650000e+001 -2.620000e+001  8.500000e+000
      vertex -5.543934e+001 -2.620000e+001  8.939340e+000
    endloop
  endfacet
  facet normal  -0.000000e+000  1.000000e+000  0.000000e+000
    outer loop
      vertex -5.400000e+001 -2.620000e+001  0.000000e+000
      vertex -5.543934e+001 -2.620000e+001  8.939340e+000
      vertex -5.500000e+001 -2.620000e+001  1.000000e+001
    endloop
  endfacet
  facet normal -9.238797e-001  3.826831e-001  0.000000e+000
    outer loop
      vertex -5.300000e+001 -2.520000e+001  0.000000e+000
      vertex -5.329289e+001 -2.590711e+001  0.000000e+000
      vertex -5.300000e+001 -2.520000e+001  2.000000e+001
    endloop
  endfacet
  facet normal -9.238797e-001  3.826831e-001  0.000000e+000
    outer loop
      vertex -5.300000e+001 -2.520000e+001  2.000000e+001
      vertex -5.329289e+001 -2.590711e+001  0.000000e+000
      vertex -5.329289e+001 -2.590711e+001  2.000000e+001
    endloop
  endfacet
  facet normal -3.826843e-001  9.238791e-001  0.000000e+000
    outer loop
      vertex -5.329289e+001 -2.590711e+001  0.000000e+000
      vertex -5.400000e+001 -2.620000e+001  0.000000e+000
      vertex -5.329289e+001 -2.590711e+001  2.000000e+001
    endloop
  endfacet
  facet normal -3.826843e-001  9.238791e-001  0.000000e+000
    outer loop
      vertex -5.329289e+001 -2.590711e+001  2.000000e+001
      vertex -5.400000e+001 -2.620000e+001  0.000000e+000
      vertex -5.400000e+001 -2.620000e+001  2.000000e+001
    endloop
  endfacet
  facet normal  0.000000e+000  1.000000e+000  0.000000e+000
    outer loop
      vertex -5.200000e+001 -1.200000e+000  2.000000e+001
      vertex -2.050000e+001 -1.200000e+000  2.000000e+001
      vertex -5.200000e+001 -1.200000e+000  0.000000e+000
    endloop
  endfacet
  facet normal  0.000000e+000  1.000000e+000  0.000000e+000
    outer loop
      vertex -5.200000e+001 -1.200000e+000  0.000000e+000
      vertex -2.050000e+001 -1.200000e+000  2.000000e+001
      vertex -2.050000e+001 -1.200000e+000  0.000000e+000
    endloop
  endfacet
  facet normal -9.238799e-001  3.826826e-001  0.000000e+000
    outer loop
      vertex -5.300000e+001 -2.200000e+000  0.000000e+000
      vertex -5.300000e+001 -2.200000e+000  2.000000e+001
      vertex -5.270711e+001 -1.492893e+000  0.000000e+000
    endloop
  endfacet
  facet normal -9.238799e-001  3.826826e-001  0.000000e+000
    outer loop
      vertex -5.270711e+001 -1.492893e+000  0.000000e+000
      vertex -5.300000e+001 -2.200000e+000  2.000000e+001
      vertex -5.270711e+001 -1.492893e+000  2.000000e+001
    endloop
  endfacet
  facet normal -3.826830e-001  9.238797e-001  0.000000e+000
    outer loop
      vertex -5.270711e+001 -1.492893e+000  0.000000e+000
      vertex -5.270711e+001 -1.492893e+000  2.000000e+001
      vertex -5.200000e+001 -1.200000e+000  0.000000e+000
    endloop
  endfacet
  facet normal -3.826830e-001  9.238797e-001  0.000000e+000
    outer loop
      vertex -5.200000e+001 -1.200000e+000  0.000000e+000
      vertex -5.270711e+001 -1.492893e+000  2.000000e+001
      vertex -5.200000e+001 -1.200000e+000  2.000000e+001
    endloop
  endfacet
  facet normal -1.000000e+000  0.000000e+000  0.000000e+000
    outer loop
      vertex -1.950000e+001  2.000000e+000  0.000000e+000
      vertex -1.950000e+001 -2.000000e-001  0.000000e+000
      vertex -1.950000e+001  2.000000e+000  2.000000e+001
    endloop
  endfacet
  facet normal -1.000000e+000  -0.000000e+000  0.000000e+000
    outer loop
      vertex -1.950000e+001  2.000000e+000  2.000000e+001
      vertex -1.950000e+001 -2.000000e-001  0.000000e+000
      vertex -1.950000e+001 -2.000000e-001  2.000000e+001
    endloop
  endfacet
  facet normal -9.238799e-001  3.826826e-001  0.000000e+000
    outer loop
      vertex -1.950000e+001 -2.000000e-001  0.000000e+000
      vertex -1.979289e+001 -9.071068e-001  0.000000e+000
      vertex -1.950000e+001 -2.000000e-001  2.000000e+001
    endloop
  endfacet
  facet normal -9.238799e-001  3.826826e-001  0.000000e+000
    outer loop
      vertex -1.950000e+001 -2.000000e-001  2.000000e+001
      vertex -1.979289e+001 -9.071068e-001  0.000000e+000
      vertex -1.979289e+001 -9.071068e-001  2.000000e+001
    endloop
  endfacet
  facet normal -3.826832e-001  9.238796e-001  0.000000e+000
    outer loop
      vertex -1.979289e+001 -9.071068e-001  0.000000e+000
      vertex -2.050000e+001 -1.200000e+000  0.000000e+000
      vertex -1.979289e+001 -9.071068e-001  2.000000e+001
    endloop
  endfacet
  facet normal -3.826832e-001  9.238796e-001  0.000000e+000
    outer loop
      vertex -1.979289e+001 -9.071068e-001  2.000000e+001
      vertex -2.050000e+001 -1.200000e+000  0.000000e+000
      vertex -2.050000e+001 -1.200000e+000  2.000000e+001
    endloop
  endfacet
  facet normal -9.238799e-001  3.826826e-001  0.000000e+000
    outer loop
      vertex -1.950000e+001  2.000000e+000  0.000000e+000
      vertex -1.950000e+001  2.000000e+000  2.000000e+001
      vertex -1.920711e+001  2.707107e+000  0.000000e+000
    endloop
  endfacet
  facet normal -9.238799e-001  3.826826e-001  0.000000e+000
    outer loop
      vertex -1.920711e+001  2.707107e+000  0.000000e+000
      vertex -1.950000e+001  2.000000e+000  2.000000e+001
      vertex -1.920711e+001  2.707107e+000  2.000000e+001
    endloop
  endfacet
  facet normal -3.826830e-001  9.238797e-001  0.000000e+000
    outer loop
      vertex -1.920711e+001  2.707107e+000  0.000000e+000
      vertex -1.920711e+001  2.707107e+000  2.000000e+001
      vertex -1.850000e+001  3.000000e+000  0.000000e+000
    endloop
  endfacet
  facet normal -3.826830e-001  9.238797e-001  0.000000e+000
    outer loop
      vertex -1.850000e+001  3.000000e+000  0.000000e+000
      vertex -1.920711e+001  2.707107e+000  2.000000e+001
      vertex -1.850000e+001  3.000000e+000  2.000000e+001
    endloop
  endfacet
  facet normal  0.000000e+000 -9.999999e-001  0.000000e+000
    outer loop
      vertex  5.000000e+001 -2.920000e+001  0.000000e+000
      vertex  6.000000e+001 -2.920000e+001  0.000000e+000
      vertex  5.543934e+001 -2.920000e+001  8.939340e+000
    endloop
  endfacet
  facet normal  -0.000000e+000 -1.000000e+000  0.000000e+000
    outer loop
      vertex  5.000000e+001 -2.920000e+001  0.000000e+000
      vertex  5.543934e+001 -2.920000e+001  8.939340e+000
      vertex  5.500000e+001 -2.920000e+001  1.000000e+001
    endloop
  endfacet
  facet normal  -0.000000e+000 -1.000000e+000  0.000000e+000
    outer loop
      vertex  5.000000e+001 -2.920000e+001  0.000000e+000
      vertex  5.500000e+001 -2.920000e+001  1.000000e+001
      vertex  5.543934e+001 -2.920000e+001  1.106066e+001
    endloop
  endfacet
  facet normal  -0.000000e+000 -9.999999e-001  0.000000e+000
    outer loop
      vertex  5.000000e+001 -2.920000e+001  0.000000e+000
      vertex  5.543934e+001 -2.920000e+001  1.106066e+001
      vertex  5.000000e+001 -2.920000e+001  2.000000e+001
    endloop
  endfacet
  facet normal  0.000000e+000 -1.000000e+000  -0.000000e+000
    outer loop
      vertex  6.000000e+001 -2.920000e+001  0.000000e+000
      vertex  6.000000e+001 -2.920000e+001  2.000000e+001
      vertex  5.800000e+001 -2.920000e+001  1.000000e+001
    endloop
  endfacet
  facet normal  0.000000e+000 -1.000000e+000  -0.000000e+000
    outer loop
      vertex  6.000000e+001 -2.920000e+001  0.000000e+000
      vertex  5.800000e+001 -2.920000e+001  1.000000e+001
      vertex  5.756066e+001 -2.920000e+001  8.939340e+000
    endloop
  endfacet
  facet normal  0.000000e+000 -1.000000e+000  -0.000000e+000
    outer loop
      vertex  6.000000e+001 -2.920000e+001  0.000000e+000
      vertex  5.756066e+001 -2.920000e+001  8.939340e+000
      vertex  5.650000e+001 -2.920000e+001  8.500000e+000
    endloop
  endfacet
  facet normal  -0.000000e+000 -1.000000e+000  -0.000000e+000
    outer loop
      vertex  6.000000e+001 -2.920000e+001  0.000000e+000
      vertex  5.650000e+001 -2.920000e+001  8.500000e+000
      vertex  5.543934e+001 -2.920000e+001  8.939340e+000
    endloop
  endfacet
  facet normal  0.000000e+000 -9.999999e-001  0.000000e+000
    outer loop
      vertex  6.000000e+001 -2.920000e+001  2.000000e+001
      vertex  5.000000e+001 -2.920000e+001  2.000000e+001
      vertex  5.543934e+001 -2.920000e+001  1.106066e+001
    endloop
  endfacet
  facet normal  0.000000e+000 -1.000000e+000  0.000000e+000
    outer loop
      vertex  6.000000e+001 -2.920000e+001  2.000000e+001
      vertex  5.543934e+001 -2.920000e+001  1.106066e+001
      vertex  5.650000e+001 -2.920000e+001  1.150000e+001
    endloop
  endfacet
  facet normal  0.000000e+000 -1.000000e+000  0.000000e+000
    outer loop
      vertex  6.000000e+001 -2.920000e+001  2.000000e+001
      vertex  5.650000e+001 -2.920000e+001  1.150000e+001
      vertex  5.756066e+001 -2.920000e+001  1.106066e+001
    endloop
  endfacet
  facet normal  0.000000e+000 -1.000000e+000  0.000000e+000
    outer loop
      vertex  6.000000e+001 -2.920000e+001  2.000000e+001
      vertex  5.756066e+001 -2.920000e+001  1.106066e+001
      vertex  5.800000e+001 -2.920000e+001  1.000000e+001
    endloop
  endfacet
  facet normal -3.826829e-001  -0.000000e+000 -9.238797e-001
    outer loop
      vertex  5.650000e+001 -2.920000e+001  1.150000e+001
      vertex  5.756066e+001 -2.620000e+001  1.106066e+001
      vertex  5.756066e+001 -2.920000e+001  1.106066e+001
    endloop
  endfacet
  facet normal -9.238799e-001  0.000000e+000 -3.826825e-001
    outer loop
      vertex  5.756066e+001 -2.920000e+001  1.106066e+001
      vertex  5.756066e+001 -2.620000e+001  1.106066e+001
      vertex  5.800000e+001 -2.620000e+001  1.000000e+001
    endloop
  endfacet
  facet normal -9.238799e-001  -0.000000e+000 -3.826825e-001
    outer loop
      vertex  5.756066e+001 -2.920000e+001  1.106066e+001
      vertex  5.800000e+001 -2.620000e+001  1.000000e+001
      vertex  5.800000e+001 -2.920000e+001  1.000000e+001
    endloop
  endfacet
  facet normal -3.826829e-001  0.000000e+000 -9.238797e-001
    outer loop
      vertex  5.756066e+001 -2.620000e+001  1.106066e+001
      vertex  5.650000e+001 -2.920000e+001  1.150000e+001
      vertex  5.650000e+001 -2.620000e+001  1.150000e+001
    endloop
  endfacet
  facet normal  3.826829e-001  0.000000e+000 -9.238797e-001
    outer loop
      vertex  5.650000e+001 -2.620000e+001  1.150000e+001
      vertex  5.650000e+001 -2.920000e+001  1.150000e+001
      vertex  5.543934e+001 -2.920000e+001  1.106066e+001
    endloop
  endfacet
  facet normal  3.826829e-001  0.000000e+000 -9.238797e-001
    outer loop
      vertex  5.650000e+001 -2.620000e+001  1.150000e+001
      vertex  5.543934e+001 -2.920000e+001  1.106066e+001
      vertex  5.543934e+001 -2.620000e+001  1.106066e+001
    endloop
  endfacet
  facet normal  9.238799e-001  0.000000e+000 -3.826825e-001
    outer loop
      vertex  5.543934e+001 -2.620000e+001  1.106066e+001
      vertex  5.543934e+001 -2.920000e+001  1.106066e+001
      vertex  5.500000e+001 -2.920000e+001  1.000000e+001
    endloop
  endfacet
  facet normal  9.238799e-001  0.000000e+000 -3.826825e-001
    outer loop
      vertex  5.543934e+001 -2.620000e+001  1.106066e+001
      vertex  5.500000e+001 -2.920000e+001  1.000000e+001
      vertex  5.500000e+001 -2.620000e+001  1.000000e+001
    endloop
  endfacet
  facet normal  3.826829e-001  0.000000e+000  9.238797e-001
    outer loop
      vertex  5.650000e+001 -2.920000e+001  8.500000e+000
      vertex  5.543934e+001 -2.620000e+001  8.939340e+000
      vertex  5.543934e+001 -2.920000e+001  8.939340e+000
    endloop
  endfacet
  facet normal  9.238799e-001  -0.000000e+000  3.826825e-001
    outer loop
      vertex  5.543934e+001 -2.920000e+001  8.939340e+000
      vertex  5.543934e+001 -2.620000e+001  8.939340e+000
      vertex  5.500000e+001 -2.620000e+001  1.000000e+001
    endloop
  endfacet
  facet normal  9.238799e-001  0.000000e+000  3.826825e-001
    outer loop
      vertex  5.543934e+001 -2.920000e+001  8.939340e+000
      vertex  5.500000e+001 -2.620000e+001  1.000000e+001
      vertex  5.500000e+001 -2.920000e+001  1.000000e+001
    endloop
  endfacet
  facet normal  3.826829e-001  -0.000000e+000  9.238797e-001
    outer loop
      vertex  5.543934e+001 -2.620000e+001  8.939340e+000
      vertex  5.650000e+001 -2.920000e+001  8.500000e+000
      vertex  5.650000e+001 -2.620000e+001  8.500000e+000
    endloop
  endfacet
  facet normal -3.826829e-001  0.000000e+000  9.238797e-001
    outer loop
      vertex  5.650000e+001 -2.620000e+001  8.500000e+000
      vertex  5.650000e+001 -2.920000e+001  8.500000e+000
      vertex  5.756066e+001 -2.920000e+001  8.939340e+000
    endloop
  endfacet
  facet normal -3.826829e-001  0.000000e+000  9.238797e-001
    outer loop
      vertex  5.650000e+001 -2.620000e+001  8.500000e+000
      vertex  5.756066e+001 -2.920000e+001  8.939340e+000
      vertex  5.756066e+001 -2.620000e+001  8.939340e+000
    endloop
  endfacet
  facet normal -9.238799e-001  0.000000e+000  3.826825e-001
    outer loop
      vertex  5.756066e+001 -2.620000e+001  8.939340e+000
      vertex  5.756066e+001 -2.920000e+001  8.939340e+000
      vertex  5.800000e+001 -2.920000e+001  1.000000e+001
    endloop
  endfacet
  facet normal -9.238799e-001  0.000000e+000  3.826825e-001
    outer loop
      vertex  5.756066e+001 -2.620000e+001  8.939340e+000
      vertex  5.800000e+001 -2.920000e+001  1.000000e+001
      vertex  5.800000e+001 -2.620000e+001  1.000000e+001
    endloop
  endfacet
  facet normal  -0.000000e+000 -1.000000e+000  0.000000e+000
    outer loop
      vertex -5.800000e+001 -2.920000e+001  1.000000e+001
      vertex -5.756066e+001 -2.920000e+001  1.106066e+001
      vertex -6.000000e+001 -2.920000e+001  2.000000e+001
    endloop
  endfacet
  facet normal  0.000000e+000 -9.999999e-001  0.000000e+000
    outer loop
      vertex -6.000000e+001 -2.920000e+001  0.000000e+000
      vertex -5.000000e+001 -2.920000e+001  0.000000e+000
      vertex -5.756066e+001 -2.920000e+001  8.939340e+000
    endloop
  endfacet
  facet normal  -0.000000e+000 -1.000000e+000  0.000000e+000
    outer loop
      vertex -6.000000e+001 -2.920000e+001  0.000000e+000
      vertex -5.756066e+001 -2.920000e+001  8.939340e+000
      vertex -5.800000e+001 -2.920000e+001  1.000000e+001
    endloop
  endfacet
  facet normal  -0.000000e+000 -1.000000e+000  0.000000e+000
    outer loop
      vertex -6.000000e+001 -2.920000e+001  0.000000e+000
      vertex -5.800000e+001 -2.920000e+001  1.000000e+001
      vertex -6.000000e+001 -2.920000e+001  2.000000e+001
    endloop
  endfacet
  facet normal  0.000000e+000 -1.000000e+000  -0.000000e+000
    outer loop
      vertex -5.000000e+001 -2.920000e+001  0.000000e+000
      vertex -5.000000e+001 -2.920000e+001  2.000000e+001
      vertex -5.500000e+001 -2.920000e+001  1.000000e+001
    endloop
  endfacet
  facet normal  0.000000e+000 -1.000000e+000  -0.000000e+000
    outer loop
      vertex -5.000000e+001 -2.920000e+001  0.000000e+000
      vertex -5.500000e+001 -2.920000e+001  1.000000e+001
      vertex -5.543934e+001 -2.920000e+001  8.939340e+000
    endloop
  endfacet
  facet normal  0.000000e+000 -1.000000e+000  -0.000000e+000
    outer loop
      vertex -5.000000e+001 -2.920000e+001  0.000000e+000
      vertex -5.543934e+001 -2.920000e+001  8.939340e+000
      vertex -5.650000e+001 -2.920000e+001  8.500000e+000
    endloop
  endfacet
  facet normal  -0.000000e+000 -1.000000e+000  -0.000000e+000
    outer loop
      vertex -5.000000e+001 -2.920000e+001  0.000000e+000
      vertex -5.650000e+001 -2.920000e+001  8.500000e+000
      vertex -5.756066e+001 -2.920000e+001  8.939340e+000
    endloop
  endfacet
  facet normal  0.000000e+000 -9.999999e-001  0.000000e+000
    outer loop
      vertex -5.000000e+001 -2.920000e+001  2.000000e+001
      vertex -6.000000e+001 -2.920000e+001  2.000000e+001
      vertex -5.756066e+001 -2.920000e+001  1.106066e+001
    endloop
  endfacet
  facet normal  0.000000e+000 -1.000000e+000  0.000000e+000
    outer loop
      vertex -5.000000e+001 -2.920000e+001  2.000000e+001
      vertex -5.756066e+001 -2.920000e+001  1.106066e+001
      vertex -5.650000e+001 -2.920000e+001  1.150000e+001
    endloop
  endfacet
  facet normal  0.000000e+000 -1.000000e+000  0.000000e+000
    outer loop
      vertex -5.000000e+001 -2.920000e+001  2.000000e+001
      vertex -5.650000e+001 -2.920000e+001  1.150000e+001
      vertex -5.543934e+001 -2.920000e+001  1.106066e+001
    endloop
  endfacet
  facet normal  0.000000e+000 -1.000000e+000  0.000000e+000
    outer loop
      vertex -5.000000e+001 -2.920000e+001  2.000000e+001
      vertex -5.543934e+001 -2.920000e+001  1.106066e+001
      vertex -5.500000e+001 -2.920000e+001  1.000000e+001
    endloop
  endfacet
  facet normal  3.826829e-001  0.000000e+000 -9.238797e-001
    outer loop
      vertex -5.650000e+001 -2.620000e+001  1.150000e+001
      vertex -5.756066e+001 -2.920000e+001  1.106066e+001
      vertex -5.756066e+001 -2.620000e+001  1.106066e+001
    endloop
  endfacet
  facet normal  9.238799e-001  0.000000e+000 -3.826825e-001
    outer loop
      vertex -5.756066e+001 -2.620000e+001  1.106066e+001
      vertex -5.756066e+001 -2.920000e+001  1.106066e+001
      vertex -5.800000e+001 -2.920000e+001  1.000000e+001
    endloop
  endfacet
  facet normal  9.238799e-001  0.000000e+000 -3.826825e-001
    outer loop
      vertex -5.756066e+001 -2.620000e+001  1.106066e+001
      vertex -5.800000e+001 -2.920000e+001  1.000000e+001
      vertex -5.800000e+001 -2.620000e+001  1.000000e+001
    endloop
  endfacet
  facet normal  3.826829e-001  0.000000e+000 -9.238797e-001
    outer loop
      vertex -5.756066e+001 -2.920000e+001  1.106066e+001
      vertex -5.650000e+001 -2.620000e+001  1.150000e+001
      vertex -5.650000e+001 -2.920000e+001  1.150000e+001
    endloop
  endfacet
  facet normal -3.826829e-001  0.000000e+000 -9.238797e-001
    outer loop
      vertex -5.650000e+001 -2.920000e+001  1.150000e+001
      vertex -5.650000e+001 -2.620000e+001  1.150000e+001
      vertex -5.543934e+001 -2.620000e+001  1.106066e+001
    endloop
  endfacet
  facet normal -3.826829e-001  -0.000000e+000 -9.238797e-001
    outer loop
      vertex -5.650000e+001 -2.920000e+001  1.150000e+001
      vertex -5.543934e+001 -2.620000e+001  1.106066e+001
      vertex -5.543934e+001 -2.920000e+001  1.106066e+001
    endloop
  endfacet
  facet normal -9.238799e-001  0.000000e+000 -3.826825e-001
    outer loop
      vertex -5.543934e+001 -2.920000e+001  1.106066e+001
      vertex -5.543934e+001 -2.620000e+001  1.106066e+001
      vertex -5.500000e+001 -2.620000e+001  1.000000e+001
    endloop
  endfacet
  facet normal -9.238799e-001  -0.000000e+000 -3.826825e-001
    outer loop
      vertex -5.543934e+001 -2.920000e+001  1.106066e+001
      vertex -5.500000e+001 -2.620000e+001  1.000000e+001
      vertex -5.500000e+001 -2.920000e+001  1.000000e+001
    endloop
  endfacet
  facet normal -3.826829e-001  0.000000e+000  9.238797e-001
    outer loop
      vertex -5.650000e+001 -2.620000e+001  8.500000e+000
      vertex -5.543934e+001 -2.920000e+001  8.939340e+000
      vertex -5.543934e+001 -2.620000e+001  8.939340e+000
    endloop
  endfacet
  facet normal -9.238799e-001  0.000000e+000  3.826825e-001
    outer loop
      vertex -5.543934e+001 -2.620000e+001  8.939340e+000
      vertex -5.543934e+001 -2.920000e+001  8.939340e+000
      vertex -5.500000e+001 -2.920000e+001  1.000000e+001
    endloop
  endfacet
  facet normal -9.238799e-001  0.000000e+000  3.826825e-001
    outer loop
      vertex -5.543934e+001 -2.620000e+001  8.939340e+000
      vertex -5.500000e+001 -2.920000e+001  1.000000e+001
      vertex -5.500000e+001 -2.620000e+001  1.000000e+001
    endloop
  endfacet
  facet normal -3.826829e-001  0.000000e+000  9.238797e-001
    outer loop
      vertex -5.543934e+001 -2.920000e+001  8.939340e+000
      vertex -5.650000e+001 -2.620000e+001  8.500000e+000
      vertex -5.650000e+001 -2.920000e+001  8.500000e+000
    endloop
  endfacet
  facet normal  3.826829e-001  -0.000000e+000  9.238797e-001
    outer loop
      vertex -5.650000e+001 -2.920000e+001  8.500000e+000
      vertex -5.650000e+001 -2.620000e+001  8.500000e+000
      vertex -5.756066e+001 -2.620000e+001  8.939340e+000
    endloop
  endfacet
  facet normal  3.826829e-001  0.000000e+000  9.238797e-001
    outer loop
      vertex -5.650000e+001 -2.920000e+001  8.500000e+000
      vertex -5.756066e+001 -2.620000e+001  8.939340e+000
      vertex -5.756066e+001 -2.920000e+001  8.939340e+000
    endloop
  endfacet
  facet normal  9.238799e-001  -0.000000e+000  3.826825e-001
    outer loop
      vertex -5.756066e+001 -2.920000e+001  8.939340e+000
      vertex -5.756066e+001 -2.620000e+001  8.939340e+000
      vertex -5.800000e+001 -2.620000e+001  1.000000e+001
    endloop
  endfacet
  facet normal  9.238799e-001  0.000000e+000  3.826825e-001
    outer loop
      vertex -5.756066e+001 -2.920000e+001  8.939340e+000
      vertex -5.800000e+001 -2.620000e+001  1.000000e+001
      vertex -5.800000e+001 -2.920000e+001  1.000000e+001
    endloop
  endfacet
  facet normal  0.000000e+000 -1.000000e+000  0.000000e+000
    outer loop
      vertex  1.150000e+001 -4.200000e+000  0.000000e+000
      vertex  5.000000e+001 -4.200000e+000  0.000000e+000
      vertex  1.560000e+001 -4.200000e+000  1.000000e+001
    endloop
  endfacet
  facet normal  0.000000e+000 -1.000000e+000  0.000000e+000
    outer loop
      vertex  1.150000e+001 -4.200000e+000  0.000000e+000
      vertex  1.560000e+001 -4.200000e+000  1.000000e+001
      vertex  1.523388e+001 -4.200000e+000  9.116117e+000
    endloop
  endfacet
  facet normal  0.000000e+000 -1.000000e+000  0.000000e+000
    outer loop
      vertex  1.150000e+001 -4.200000e+000  0.000000e+000
      vertex  1.523388e+001 -4.200000e+000  9.116117e+000
      vertex  1.435000e+001 -4.200000e+000  8.750000e+000
    endloop
  endfacet
  facet normal  -0.000000e+000 -1.000000e+000  0.000000e+000
    outer loop
      vertex  1.150000e+001 -4.200000e+000  0.000000e+000
      vertex  1.435000e+001 -4.200000e+000  8.750000e+000
      vertex  1.346612e+001 -4.200000e+000  9.116117e+000
    endloop
  endfacet
  facet normal  -0.000000e+000 -1.000000e+000  0.000000e+000
    outer loop
      vertex  1.150000e+001 -4.200000e+000  0.000000e+000
      vertex  1.346612e+001 -4.200000e+000  9.116117e+000
      vertex  1.310000e+001 -4.200000e+000  1.000000e+001
    endloop
  endfacet
  facet normal  -0.000000e+000 -1.000000e+000  0.000000e+000
    outer loop
      vertex  1.150000e+001 -4.200000e+000  0.000000e+000
      vertex  1.310000e+001 -4.200000e+000  1.000000e+001
      vertex  1.150000e+001 -4.200000e+000  2.000000e+001
    endloop
  endfacet
  facet normal  0.000000e+000 -1.000000e+000  0.000000e+000
    outer loop
      vertex  1.150000e+001 -4.200000e+000  2.000000e+001
      vertex  1.310000e+001 -4.200000e+000  1.000000e+001
      vertex  1.346612e+001 -4.200000e+000  1.088388e+001
    endloop
  endfacet
  facet normal  0.000000e+000 -1.000000e+000  0.000000e+000
    outer loop
      vertex  1.150000e+001 -4.200000e+000  2.000000e+001
      vertex  1.346612e+001 -4.200000e+000  1.088388e+001
      vertex  1.435000e+001 -4.200000e+000  1.125000e+001
    endloop
  endfacet
  facet normal  0.000000e+000 -1.000000e+000  0.000000e+000
    outer loop
      vertex  1.150000e+001 -4.200000e+000  2.000000e+001
      vertex  1.435000e+001 -4.200000e+000  1.125000e+001
      vertex  1.523388e+001 -4.200000e+000  1.088388e+001
    endloop
  endfacet
  facet normal  0.000000e+000 -1.000000e+000  0.000000e+000
    outer loop
      vertex  1.150000e+001 -4.200000e+000  2.000000e+001
      vertex  1.523388e+001 -4.200000e+000  1.088388e+001
      vertex  1.560000e+001 -4.200000e+000  1.000000e+001
    endloop
  endfacet
  facet normal  0.000000e+000 -1.000000e+000  0.000000e+000
    outer loop
      vertex  1.150000e+001 -4.200000e+000  2.000000e+001
      vertex  1.560000e+001 -4.200000e+000  1.000000e+001
      vertex  5.000000e+001 -4.200000e+000  0.000000e+000
    endloop
  endfacet
  facet normal  0.000000e+000 -1.000000e+000  0.000000e+000
    outer loop
      vertex  1.150000e+001 -4.200000e+000  2.000000e+001
      vertex  5.000000e+001 -4.200000e+000  0.000000e+000
      vertex  5.000000e+001 -4.200000e+000  2.000000e+001
    endloop
  endfacet
  facet normal  0.000000e+000 -1.000000e+000  0.000000e+000
    outer loop
      vertex -1.150000e+001 -4.200000e+000  2.000000e+001
      vertex -5.000000e+001 -4.200000e+000  2.000000e+001
      vertex -1.560000e+001 -4.200000e+000  1.000000e+001
    endloop
  endfacet
  facet normal  0.000000e+000 -1.000000e+000  0.000000e+000
    outer loop
      vertex -1.150000e+001 -4.200000e+000  2.000000e+001
      vertex -1.560000e+001 -4.200000e+000  1.000000e+001
      vertex -1.523388e+001 -4.200000e+000  1.088388e+001
    endloop
  endfacet
  facet normal  0.000000e+000 -1.000000e+000  0.000000e+000
    outer loop
      vertex -1.150000e+001 -4.200000e+000  2.000000e+001
      vertex -1.523388e+001 -4.200000e+000  1.088388e+001
      vertex -1.435000e+001 -4.200000e+000  1.125000e+001
    endloop
  endfacet
  facet normal  0.000000e+000 -1.000000e+000  0.000000e+000
    outer loop
      vertex -1.150000e+001 -4.200000e+000  2.000000e+001
      vertex -1.435000e+001 -4.200000e+000  1.125000e+001
      vertex -1.346612e+001 -4.200000e+000  1.088388e+001
    endloop
  endfacet
  facet normal  0.000000e+000 -1.000000e+000  0.000000e+000
    outer loop
      vertex -1.150000e+001 -4.200000e+000  2.000000e+001
      vertex -1.346612e+001 -4.200000e+000  1.088388e+001
      vertex -1.310000e+001 -4.200000e+000  1.000000e+001
    endloop
  endfacet
  facet normal  0.000000e+000 -1.000000e+000  0.000000e+000
    outer loop
      vertex -1.150000e+001 -4.200000e+000  2.000000e+001
      vertex -1.310000e+001 -4.200000e+000  1.000000e+001
      vertex -1.150000e+001 -4.200000e+000  0.000000e+000
    endloop
  endfacet
  facet normal  0.000000e+000 -1.000000e+000  -0.000000e+000
    outer loop
      vertex -1.150000e+001 -4.200000e+000  0.000000e+000
      vertex -1.310000e+001 -4.200000e+000  1.000000e+001
      vertex -1.346612e+001 -4.200000e+000  9.116117e+000
    endloop
  endfacet
  facet normal  0.000000e+000 -1.000000e+000  -0.000000e+000
    outer loop
      vertex -1.150000e+001 -4.200000e+000  0.000000e+000
      vertex -1.346612e+001 -4.200000e+000  9.116117e+000
      vertex -1.435000e+001 -4.200000e+000  8.750000e+000
    endloop
  endfacet
  facet normal  -0.000000e+000 -1.000000e+000  -0.000000e+000
    outer loop
      vertex -1.150000e+001 -4.200000e+000  0.000000e+000
      vertex -1.435000e+001 -4.200000e+000  8.750000e+000
      vertex -1.523388e+001 -4.200000e+000  9.116117e+000
    endloop
  endfacet
  facet normal  -0.000000e+000 -1.000000e+000  -0.000000e+000
    outer loop
      vertex -1.150000e+001 -4.200000e+000  0.000000e+000
      vertex -1.523388e+001 -4.200000e+000  9.116117e+000
      vertex -1.560000e+001 -4.200000e+000  1.000000e+001
    endloop
  endfacet
  facet normal  -0.000000e+000 -1.000000e+000  -0.000000e+000
    outer loop
      vertex -1.150000e+001 -4.200000e+000  0.000000e+000
      vertex -1.560000e+001 -4.200000e+000  1.000000e+001
      vertex -5.000000e+001 -4.200000e+000  2.000000e+001
    endloop
  endfacet
  facet normal  0.000000e+000 -1.000000e+000  0.000000e+000
    outer loop
      vertex -1.150000e+001 -4.200000e+000  0.000000e+000
      vertex -5.000000e+001 -4.200000e+000  2.000000e+001
      vertex -5.000000e+001 -4.200000e+000  0.000000e+000
    endloop
  endfacet
  facet normal -3.826834e-001  -0.000000e+000 -9.238794e-001
    outer loop
      vertex  1.435000e+001 -4.200000e+000  1.125000e+001
      vertex  1.523388e+001  3.000000e+000  1.088388e+001
      vertex  1.523388e+001 -4.200000e+000  1.088388e+001
    endloop
  endfacet
  facet normal -9.238794e-001  0.000000e+000 -3.826834e-001
    outer loop
      vertex  1.523388e+001 -4.200000e+000  1.088388e+001
      vertex  1.523388e+001  3.000000e+000  1.088388e+001
      vertex  1.560000e+001  3.000000e+000  1.000000e+001
    endloop
  endfacet
  facet normal -9.238794e-001  -0.000000e+000 -3.826834e-001
    outer loop
      vertex  1.523388e+001 -4.200000e+000  1.088388e+001
      vertex  1.560000e+001  3.000000e+000  1.000000e+001
      vertex  1.560000e+001 -4.200000e+000  1.000000e+001
    endloop
  endfacet
  facet normal -3.826834e-001  0.000000e+000 -9.238794e-001
    outer loop
      vertex  1.523388e+001  3.000000e+000  1.088388e+001
      vertex  1.435000e+001 -4.200000e+000  1.125000e+001
      vertex  1.435000e+001  3.000000e+000  1.125000e+001
    endloop
  endfacet
  facet normal  3.826834e-001  0.000000e+000 -9.238794e-001
    outer loop
      vertex  1.435000e+001  3.000000e+000  1.125000e+001
      vertex  1.435000e+001 -4.200000e+000  1.125000e+001
      vertex  1.346612e+001 -4.200000e+000  1.088388e+001
    endloop
  endfacet
  facet normal  3.826834e-001  0.000000e+000 -9.238794e-001
    outer loop
      vertex  1.435000e+001  3.000000e+000  1.125000e+001
      vertex  1.346612e+001 -4.200000e+000  1.088388e+001
      vertex  1.346612e+001  3.000000e+000  1.088388e+001
    endloop
  endfacet
  facet normal  9.238794e-001  0.000000e+000 -3.826834e-001
    outer loop
      vertex  1.346612e+001  3.000000e+000  1.088388e+001
      vertex  1.346612e+001 -4.200000e+000  1.088388e+001
      vertex  1.310000e+001 -4.200000e+000  1.000000e+001
    endloop
  endfacet
  facet normal  9.238794e-001  0.000000e+000 -3.826834e-001
    outer loop
      vertex  1.346612e+001  3.000000e+000  1.088388e+001
      vertex  1.310000e+001 -4.200000e+000  1.000000e+001
      vertex  1.310000e+001  3.000000e+000  1.000000e+001
    endloop
  endfacet
  facet normal  3.826834e-001  0.000000e+000  9.238794e-001
    outer loop
      vertex  1.435000e+001 -4.200000e+000  8.750000e+000
      vertex  1.346612e+001  3.000000e+000  9.116117e+000
      vertex  1.346612e+001 -4.200000e+000  9.116117e+000
    endloop
  endfacet
  facet normal  9.238794e-001  -0.000000e+000  3.826834e-001
    outer loop
      vertex  1.346612e+001 -4.200000e+000  9.116117e+000
      vertex  1.346612e+001  3.000000e+000  9.116117e+000
      vertex  1.310000e+001  3.000000e+000  1.000000e+001
    endloop
  endfacet
  facet normal  9.238794e-001  0.000000e+000  3.826834e-001
    outer loop
      vertex  1.346612e+001 -4.200000e+000  9.116117e+000
      vertex  1.310000e+001  3.000000e+000  1.000000e+001
      vertex  1.310000e+001 -4.200000e+000  1.000000e+001
    endloop
  endfacet
  facet normal  3.826834e-001  -0.000000e+000  9.238794e-001
    outer loop
      vertex  1.346612e+001  3.000000e+000  9.116117e+000
      vertex  1.435000e+001 -4.200000e+000  8.750000e+000
      vertex  1.435000e+001  3.000000e+000  8.750000e+000
    endloop
  endfacet
  facet normal -3.826834e-001  0.000000e+000  9.238794e-001
    outer loop
      vertex  1.435000e+001  3.000000e+000  8.750000e+000
      vertex  1.435000e+001 -4.200000e+000  8.750000e+000
      vertex  1.523388e+001 -4.200000e+000  9.116117e+000
    endloop
  endfacet
  facet normal -3.826834e-001  0.000000e+000  9.238794e-001
    outer loop
      vertex  1.435000e+001  3.000000e+000  8.750000e+000
      vertex  1.523388e+001 -4.200000e+000  9.116117e+000
      vertex  1.523388e+001  3.000000e+000  9.116117e+000
    endloop
  endfacet
  facet normal -9.238794e-001  0.000000e+000  3.826834e-001
    outer loop
      vertex  1.523388e+001  3.000000e+000  9.116117e+000
      vertex  1.523388e+001 -4.200000e+000  9.116117e+000
      vertex  1.560000e+001 -4.200000e+000  1.000000e+001
    endloop
  endfacet
  facet normal -9.238794e-001  0.000000e+000  3.826834e-001
    outer loop
      vertex  1.523388e+001  3.000000e+000  9.116117e+000
      vertex  1.560000e+001 -4.200000e+000  1.000000e+001
      vertex  1.560000e+001  3.000000e+000  1.000000e+001
    endloop
  endfacet
  facet normal -3.826834e-001  -0.000000e+000 -9.238794e-001
    outer loop
      vertex -1.435000e+001 -4.200000e+000  1.125000e+001
      vertex -1.346612e+001  3.000000e+000  1.088388e+001
      vertex -1.346612e+001 -4.200000e+000  1.088388e+001
    endloop
  endfacet
  facet normal -9.238794e-001  0.000000e+000 -3.826834e-001
    outer loop
      vertex -1.346612e+001 -4.200000e+000  1.088388e+001
      vertex -1.346612e+001  3.000000e+000  1.088388e+001
      vertex -1.310000e+001  3.000000e+000  1.000000e+001
    endloop
  endfacet
  facet normal -9.238794e-001  -0.000000e+000 -3.826834e-001
    outer loop
      vertex -1.346612e+001 -4.200000e+000  1.088388e+001
      vertex -1.310000e+001  3.000000e+000  1.000000e+001
      vertex -1.310000e+001 -4.200000e+000  1.000000e+001
    endloop
  endfacet
  facet normal -3.826834e-001  0.000000e+000 -9.238794e-001
    outer loop
      vertex -1.346612e+001  3.000000e+000  1.088388e+001
      vertex -1.435000e+001 -4.200000e+000  1.125000e+001
      vertex -1.435000e+001  3.000000e+000  1.125000e+001
    endloop
  endfacet
  facet normal  3.826834e-001  0.000000e+000 -9.238794e-001
    outer loop
      vertex -1.435000e+001  3.000000e+000  1.125000e+001
      vertex -1.435000e+001 -4.200000e+000  1.125000e+001
      vertex -1.523388e+001 -4.200000e+000  1.088388e+001
    endloop
  endfacet
  facet normal  3.826834e-001  0.000000e+000 -9.238794e-001
    outer loop
      vertex -1.435000e+001  3.000000e+000  1.125000e+001
      vertex -1.523388e+001 -4.200000e+000  1.088388e+001
      vertex -1.523388e+001  3.000000e+000  1.088388e+001
    endloop
  endfacet
  facet normal  9.238794e-001  0.000000e+000 -3.826834e-001
    outer loop
      vertex -1.523388e+001  3.000000e+000  1.088388e+001
      vertex -1.523388e+001 -4.200000e+000  1.088388e+001
      vertex -1.560000e+001 -4.200000e+000  1.000000e+001
    endloop
  endfacet
  facet normal  9.238794e-001  0.000000e+000 -3.826834e-001
    outer loop
      vertex -1.523388e+001  3.000000e+000  1.088388e+001
      vertex -1.560000e+001 -4.200000e+000  1.000000e+001
      vertex -1.560000e+001  3.000000e+000  1.000000e+001
    endloop
  endfacet
  facet normal  3.826834e-001  0.000000e+000  9.238794e-001
    outer loop
      vertex -1.435000e+001 -4.200000e+000  8.750000e+000
      vertex -1.523388e+001  3.000000e+000  9.116117e+000
      vertex -1.523388e+001 -4.200000e+000  9.116117e+000
    endloop
  endfacet
  facet normal  9.238794e-001  -0.000000e+000  3.826834e-001
    outer loop
      vertex -1.523388e+001 -4.200000e+000  9.116117e+000
      vertex -1.523388e+001  3.000000e+000  9.116117e+000
      vertex -1.560000e+001  3.000000e+000  1.000000e+001
    endloop
  endfacet
  facet normal  9.238794e-001  0.000000e+000  3.826834e-001
    outer loop
      vertex -1.523388e+001 -4.200000e+000  9.116117e+000
      vertex -1.560000e+001  3.000000e+000  1.000000e+001
      vertex -1.560000e+001 -4.200000e+000  1.000000e+001
    endloop
  endfacet
  facet normal  3.826834e-001  -0.000000e+000  9.238794e-001
    outer loop
      vertex -1.523388e+001  3.000000e+000  9.116117e+000
      vertex -1.435000e+001 -4.200000e+000  8.750000e+000
      vertex -1.435000e+001  3.000000e+000  8.750000e+000
    endloop
  endfacet
  facet normal -3.826834e-001  0.000000e+000  9.238794e-001
    outer loop
      vertex -1.435000e+001  3.000000e+000  8.750000e+000
      vertex -1.435000e+001 -4.200000e+000  8.750000e+000
      vertex -1.346612e+001 -4.200000e+000  9.116117e+000
    endloop
  endfacet
  facet normal -3.826834e-001  0.000000e+000  9.238794e-001
    outer loop
      vertex -1.435000e+001  3.000000e+000  8.750000e+000
      vertex -1.346612e+001 -4.200000e+000  9.116117e+000
      vertex -1.346612e+001  3.000000e+000  9.116117e+000
    endloop
  endfacet
  facet normal -9.238794e-001  0.000000e+000  3.826834e-001
    outer loop
      vertex -1.346612e+001  3.000000e+000  9.116117e+000
      vertex -1.346612e+001 -4.200000e+000  9.116117e+000
      vertex -1.310000e+001 -4.200000e+000  1.000000e+001
    endloop
  endfacet
  facet normal -9.238794e-001  0.000000e+000  3.826834e-001
    outer loop
      vertex -1.346612e+001  3.000000e+000  9.116117e+000
      vertex -1.310000e+001 -4.200000e+000  1.000000e+001
      vertex -1.310000e+001  3.000000e+000  1.000000e+001
    endloop
  endfacet
  facet normal  1.000000e+000  0.000000e+000  0.000000e+000
    outer loop
      vertex -1.150000e+001 -1.865175e-014  0.000000e+000
      vertex -1.150000e+001 -1.865175e-014  1.000000e+001
      vertex -1.150000e+001 -4.200000e+000  0.000000e+000
    endloop
  endfacet
  facet normal  1.000000e+000  0.000000e+000  0.000000e+000
    outer loop
      vertex -1.150000e+001 -4.200000e+000  0.000000e+000
      vertex -1.150000e+001 -1.865175e-014  1.000000e+001
      vertex -1.150000e+001 -1.865175e-014  2.000000e+001
    endloop
  endfacet
  facet normal  1.000000e+000  0.000000e+000  0.000000e+000
    outer loop
      vertex -1.150000e+001 -4.200000e+000  0.000000e+000
      vertex -1.150000e+001 -1.865175e-014  2.000000e+001
      vertex -1.150000e+001 -4.200000e+000  2.000000e+001
    endloop
  endfacet
  facet normal  0.000000e+000 -1.000000e+000  0.000000e+000
    outer loop
      vertex -1.366071e-001  0.000000e+000  1.268961e+001
      vertex  1.569875e+000  0.000000e+000  1.226483e+001
      vertex -1.822052e+000  0.000000e+000  1.474054e+001
    endloop
  endfacet
  facet normal  0.000000e+000 -9.999999e-001  0.000000e+000
    outer loop
      vertex -1.366071e-001  0.000000e+000  7.310387e+000
      vertex -1.822052e+000  0.000000e+000  5.259462e+000
      vertex  1.569875e+000  0.000000e+000  7.735168e+000
    endloop
  endfacet
  facet normal  3.176108e-014 -1.000000e+000  0.000000e+000
    outer loop
      vertex -1.150000e+001 -1.865175e-014  2.000000e+001
      vertex -1.150000e+001 -1.865175e-014  1.000000e+001
      vertex -1.091275e+001  0.000000e+000  1.258885e+001
    endloop
  endfacet
  facet normal  2.892186e-015 -1.000000e+000 -2.287541e-015
    outer loop
      vertex -1.150000e+001 -1.865175e-014  2.000000e+001
      vertex -1.091275e+001  0.000000e+000  1.258885e+001
      vertex -9.265949e+000  0.000000e+000  1.467093e+001
    endloop
  endfacet
  facet normal  1.422332e-015 -1.000000e+000 -2.903734e-015
    outer loop
      vertex -1.150000e+001 -1.865175e-014  2.000000e+001
      vertex -9.265949e+000  0.000000e+000  1.467093e+001
      vertex -6.881963e+000  0.000000e+000  1.583868e+001
    endloop
  endfacet
  facet normal  4.148064e-017 -1.000000e+000 -4.436137e-015
    outer loop
      vertex -1.150000e+001 -1.865175e-014  2.000000e+001
      vertex -6.881963e+000  0.000000e+000  1.583868e+001
      vertex -4.227457e+000  0.000000e+000  1.586350e+001
    endloop
  endfacet
  facet normal -1.174612e-014 -1.000000e+000 -2.516039e-014
    outer loop
      vertex -1.150000e+001 -1.865175e-014  2.000000e+001
      vertex -4.227457e+000  0.000000e+000  1.586350e+001
      vertex -1.822052e+000  0.000000e+000  1.474054e+001
    endloop
  endfacet
  facet normal  8.109455e-016 -1.000000e+000 -2.054099e-015
    outer loop
      vertex  1.150000e+001  0.000000e+000  2.000000e+001
      vertex -1.150000e+001 -1.865175e-014  2.000000e+001
      vertex -1.822052e+000  0.000000e+000  1.474054e+001
    endloop
  endfacet
  facet normal  0.000000e+000 -9.999999e-001  0.000000e+000
    outer loop
      vertex  1.150000e+001  0.000000e+000  2.000000e+001
      vertex -1.822052e+000  0.000000e+000  1.474054e+001
      vertex  1.569875e+000  0.000000e+000  1.226483e+001
    endloop
  endfacet
  facet normal  0.000000e+000 -1.000000e+000  0.000000e+000
    outer loop
      vertex  1.150000e+001  0.000000e+000  2.000000e+001
      vertex  1.569875e+000  0.000000e+000  1.226483e+001
      vertex  2.652816e+000  0.000000e+000  1.087928e+001
    endloop
  endfacet
  facet normal  0.000000e+000 -1.000000e+000  0.000000e+000
    outer loop
      vertex  1.150000e+001  0.000000e+000  2.000000e+001
      vertex  2.652816e+000  0.000000e+000  1.087928e+001
      vertex  1.150000e+001  0.000000e+000  0.000000e+000
    endloop
  endfacet
  facet normal -1.174609e-014 -1.000000e+000  2.516032e-014
    outer loop
      vertex -1.150000e+001 -1.865175e-014  0.000000e+000
      vertex -1.822052e+000  0.000000e+000  5.259462e+000
      vertex -4.227457e+000  0.000000e+000  4.136500e+000
    endloop
  endfacet
  facet normal  4.147985e-017 -1.000000e+000  4.436138e-015
    outer loop
      vertex -1.150000e+001 -1.865175e-014  0.000000e+000
      vertex -4.227457e+000  0.000000e+000  4.136500e+000
      vertex -6.881963e+000  0.000000e+000  4.161321e+000
    endloop
  endfacet
  facet normal  1.422332e-015 -1.000000e+000  2.903734e-015
    outer loop
      vertex -1.150000e+001 -1.865175e-014  0.000000e+000
      vertex -6.881963e+000  0.000000e+000  4.161321e+000
      vertex -9.265949e+000  0.000000e+000  5.329065e+000
    endloop
  endfacet
  facet normal  2.892187e-015 -1.000000e+000  2.287541e-015
    outer loop
      vertex -1.150000e+001 -1.865175e-014  0.000000e+000
      vertex -9.265949e+000  0.000000e+000  5.329065e+000
      vertex -1.091275e+001  0.000000e+000  7.411148e+000
    endloop
  endfacet
  facet normal  3.176108e-014 -1.000000e+000  0.000000e+000
    outer loop
      vertex -1.150000e+001 -1.865175e-014  0.000000e+000
      vertex -1.091275e+001  0.000000e+000  7.411148e+000
      vertex -1.150000e+001 -1.865175e-014  1.000000e+001
    endloop
  endfacet
  facet normal  0.000000e+000 -1.000000e+000  0.000000e+000
    outer loop
      vertex  1.150000e+001  0.000000e+000  0.000000e+000
      vertex  2.652816e+000  0.000000e+000  1.087928e+001
      vertex  2.652816e+000  0.000000e+000  9.120722e+000
    endloop
  endfacet
  facet normal  0.000000e+000 -1.000000e+000  -0.000000e+000
    outer loop
      vertex  1.150000e+001  0.000000e+000  0.000000e+000
      vertex  2.652816e+000  0.000000e+000  9.120722e+000
      vertex  1.569875e+000  0.000000e+000  7.735168e+000
    endloop
  endfacet
  facet normal  0.000000e+000 -9.999999e-001  -0.000000e+000
    outer loop
      vertex  1.150000e+001  0.000000e+000  0.000000e+000
      vertex  1.569875e+000  0.000000e+000  7.735168e+000
      vertex -1.822052e+000  0.000000e+000  5.259462e+000
    endloop
  endfacet
  facet normal  8.109455e-016 -1.000000e+000  2.054099e-015
    outer loop
      vertex  1.150000e+001  0.000000e+000  0.000000e+000
      vertex -1.822052e+000  0.000000e+000  5.259462e+000
      vertex -1.150000e+001 -1.865175e-014  0.000000e+000
    endloop
  endfacet
  facet normal -7.878929e-001  0.000000e+000  6.158122e-001
    outer loop
      vertex  2.652816e+000  0.000000e+000  9.120722e+000
      vertex  1.569875e+000  3.000000e+000  7.735168e+000
      vertex  1.569875e+000  0.000000e+000  7.735168e+000
    endloop
  endfacet
  facet normal -2.415506e-001  0.000000e+000  9.703882e-001
    outer loop
      vertex  1.569875e+000  0.000000e+000  7.735168e+000
      vertex  1.569875e+000  3.000000e+000  7.735168e+000
      vertex -1.366071e-001  3.000000e+000  7.310387e+000
    endloop
  endfacet
  facet normal -2.415506e-001  0.000000e+000  9.703882e-001
    outer loop
      vertex  1.569875e+000  0.000000e+000  7.735168e+000
      vertex -1.366071e-001  3.000000e+000  7.310387e+000
      vertex -1.366071e-001  0.000000e+000  7.310387e+000
    endloop
  endfacet
  facet normal -7.878929e-001  0.000000e+000  6.158122e-001
    outer loop
      vertex  1.569875e+000  3.000000e+000  7.735168e+000
      vertex  2.652816e+000  0.000000e+000  9.120722e+000
      vertex  2.652816e+000  3.000000e+000  9.120722e+000
    endloop
  endfacet
  facet normal -1.000000e+000  0.000000e+000  0.000000e+000
    outer loop
      vertex  2.652816e+000  3.000000e+000  9.120722e+000
      vertex  2.652816e+000  0.000000e+000  9.120722e+000
      vertex  2.652816e+000  0.000000e+000  1.087928e+001
    endloop
  endfacet
  facet normal -1.000000e+000  0.000000e+000  0.000000e+000
    outer loop
      vertex  2.652816e+000  3.000000e+000  9.120722e+000
      vertex  2.652816e+000  0.000000e+000  1.087928e+001
      vertex  2.652816e+000  3.000000e+000  1.087928e+001
    endloop
  endfacet
  facet normal -7.878929e-001  -0.000000e+000 -6.158122e-001
    outer loop
      vertex  2.652816e+000  3.000000e+000  1.087928e+001
      vertex  2.652816e+000  0.000000e+000  1.087928e+001
      vertex  1.569875e+000  0.000000e+000  1.226483e+001
    endloop
  endfacet
  facet normal -7.878929e-001  0.000000e+000 -6.158122e-001
    outer loop
      vertex  2.652816e+000  3.000000e+000  1.087928e+001
      vertex  1.569875e+000  0.000000e+000  1.226483e+001
      vertex  1.569875e+000  3.000000e+000  1.226483e+001
    endloop
  endfacet
  facet normal -2.415503e-001  -0.000000e+000 -9.703884e-001
    outer loop
      vertex  1.569875e+000  3.000000e+000  1.226483e+001
      vertex  1.569875e+000  0.000000e+000  1.226483e+001
      vertex -1.366071e-001  0.000000e+000  1.268961e+001
    endloop
  endfacet
  facet normal -2.415503e-001  0.000000e+000 -9.703884e-001
    outer loop
      vertex  1.569875e+000  3.000000e+000  1.226483e+001
      vertex -1.366071e-001  0.000000e+000  1.268961e+001
      vertex -1.366071e-001  3.000000e+000  1.268961e+001
    endloop
  endfacet
  facet normal -3.669532e-001 -3.264621e-002 -9.296664e-001
    outer loop
      vertex -4.227457e+000  0.000000e+000  1.586350e+001
      vertex -4.706732e+000  3.000000e+000  1.594733e+001
      vertex -2.017286e+000  3.000000e+000  1.488577e+001
    endloop
  endfacet
  facet normal  9.346167e-003  2.942279e-002 -9.995234e-001
    outer loop
      vertex -4.706732e+000  3.000000e+000  1.594733e+001
      vertex -4.227457e+000  0.000000e+000  1.586350e+001
      vertex -6.881963e+000  0.000000e+000  1.583868e+001
    endloop
  endfacet
  facet normal  1.104091e-001 -4.409522e-002 -9.929076e-001
    outer loop
      vertex -6.881963e+000  0.000000e+000  1.583868e+001
      vertex -7.580394e+000  3.000000e+000  1.562778e+001
      vertex -4.706732e+000  3.000000e+000  1.594733e+001
    endloop
  endfacet
  facet normal  4.395521e-001  3.924955e-002 -8.973591e-001
    outer loop
      vertex -7.580394e+000  3.000000e+000  1.562778e+001
      vertex -6.881963e+000  0.000000e+000  1.583868e+001
      vertex -9.265949e+000  0.000000e+000  1.467093e+001
    endloop
  endfacet
  facet normal  5.617479e-001 -5.227636e-002 -8.256552e-001
    outer loop
      vertex -9.265949e+000  0.000000e+000  1.467093e+001
      vertex -9.970940e+000  3.000000e+000  1.400134e+001
      vertex -7.580394e+000  3.000000e+000  1.562778e+001
    endloop
  endfacet
  facet normal  7.835006e-001  4.580363e-002 -6.197006e-001
    outer loop
      vertex -9.970940e+000  3.000000e+000  1.400134e+001
      vertex -9.265949e+000  0.000000e+000  1.467093e+001
      vertex -1.091275e+001  0.000000e+000  1.258885e+001
    endloop
  endfacet
  facet normal  8.824421e-001 -5.718530e-002 -4.669325e-001
    outer loop
      vertex -1.091275e+001  0.000000e+000  1.258885e+001
      vertex -1.132323e+001  3.000000e+000  1.144569e+001
      vertex -9.970940e+000  3.000000e+000  1.400134e+001
    endloop
  endfacet
  facet normal  8.824420e-001 -5.718534e-002  4.669326e-001
    outer loop
      vertex -9.970940e+000  3.000000e+000  5.998662e+000
      vertex -1.132323e+001  3.000000e+000  8.554314e+000
      vertex -1.091275e+001  0.000000e+000  7.411148e+000
    endloop
  endfacet
  facet normal  7.835006e-001  4.580353e-002  6.197006e-001
    outer loop
      vertex -9.265949e+000  0.000000e+000  5.329065e+000
      vertex -9.970940e+000  3.000000e+000  5.998662e+000
      vertex -1.091275e+001  0.000000e+000  7.411148e+000
    endloop
  endfacet
  facet normal  5.617480e-001 -5.227644e-002  8.256551e-001
    outer loop
      vertex -7.580394e+000  3.000000e+000  4.372215e+000
      vertex -9.970940e+000  3.000000e+000  5.998662e+000
      vertex -9.265949e+000  0.000000e+000  5.329065e+000
    endloop
  endfacet
  facet normal  4.395521e-001  3.924955e-002  8.973591e-001
    outer loop
      vertex -6.881963e+000  0.000000e+000  4.161321e+000
      vertex -7.580394e+000  3.000000e+000  4.372215e+000
      vertex -9.265949e+000  0.000000e+000  5.329065e+000
    endloop
  endfacet
  facet normal  1.104091e-001 -4.409522e-002  9.929076e-001
    outer loop
      vertex -4.706732e+000  3.000000e+000  4.052670e+000
      vertex -7.580394e+000  3.000000e+000  4.372215e+000
      vertex -6.881963e+000  0.000000e+000  4.161321e+000
    endloop
  endfacet
  facet normal  9.345987e-003  2.942292e-002  9.995234e-001
    outer loop
      vertex -4.227457e+000  0.000000e+000  4.136500e+000
      vertex -4.706732e+000  3.000000e+000  4.052670e+000
      vertex -6.881963e+000  0.000000e+000  4.161321e+000
    endloop
  endfacet
  facet normal -3.669530e-001 -3.264603e-002  9.296665e-001
    outer loop
      vertex -2.017286e+000  3.000000e+000  5.114234e+000
      vertex -4.706732e+000  3.000000e+000  4.052670e+000
      vertex -4.227457e+000  0.000000e+000  4.136500e+000
    endloop
  endfacet
  facet normal  9.740489e-001  4.908114e-002  2.209519e-001
    outer loop
      vertex -1.150000e+001 -1.865175e-014  1.000000e+001
      vertex -1.091275e+001  0.000000e+000  7.411148e+000
      vertex -1.132323e+001  3.000000e+000  8.554314e+000
    endloop
  endfacet
  facet normal  9.982685e-001 -5.882169e-002  0.000000e+000
    outer loop
      vertex -1.150000e+001 -1.865175e-014  1.000000e+001
      vertex -1.132323e+001  3.000000e+000  8.554314e+000
      vertex -1.132323e+001  3.000000e+000  1.144569e+001
    endloop
  endfacet
  facet normal  9.740489e-001  4.908115e-002 -2.209519e-001
    outer loop
      vertex -1.150000e+001 -1.865175e-014  1.000000e+001
      vertex -1.132323e+001  3.000000e+000  1.144569e+001
      vertex -1.091275e+001  0.000000e+000  1.258885e+001
    endloop
  endfacet
  facet normal -4.229653e-001  1.633287e-002 -9.059986e-001
    outer loop
      vertex -4.227457e+000  0.000000e+000  1.586350e+001
      vertex -2.017286e+000  3.000000e+000  1.488577e+001
      vertex -1.822052e+000  0.000000e+000  1.474054e+001
    endloop
  endfacet
  facet normal -7.594312e-001 -1.793987e-002 -6.503401e-001
    outer loop
      vertex -1.822052e+000  0.000000e+000  1.474054e+001
      vertex -2.017286e+000  3.000000e+000  1.488577e+001
      vertex -1.366071e-001  3.000000e+000  1.268961e+001
    endloop
  endfacet
  facet normal -7.725865e-001  -0.000000e+000 -6.349095e-001
    outer loop
      vertex -1.822052e+000  0.000000e+000  1.474054e+001
      vertex -1.366071e-001  3.000000e+000  1.268961e+001
      vertex -1.366071e-001  0.000000e+000  1.268961e+001
    endloop
  endfacet
  facet normal -4.229652e-001  1.633303e-002  9.059987e-001
    outer loop
      vertex -4.227457e+000  0.000000e+000  4.136500e+000
      vertex -1.822052e+000  0.000000e+000  5.259462e+000
      vertex -2.017286e+000  3.000000e+000  5.114234e+000
    endloop
  endfacet
  facet normal -7.724389e-001 -1.953913e-002  6.347884e-001
    outer loop
      vertex -2.017286e+000  3.000000e+000  5.114234e+000
      vertex -1.822052e+000  0.000000e+000  5.259462e+000
      vertex -1.366071e-001  0.000000e+000  7.310387e+000
    endloop
  endfacet
  facet normal -7.595535e-001  0.000000e+000  6.504448e-001
    outer loop
      vertex -2.017286e+000  3.000000e+000  5.114234e+000
      vertex -1.366071e-001  0.000000e+000  7.310387e+000
      vertex -1.366071e-001  3.000000e+000  7.310387e+000
    endloop
  endfacet
  facet normal  1.000000e+000  0.000000e+000  0.000000e+000
    outer loop
      vertex  6.000000e+001 -2.920000e+001  0.000000e+000
      vertex  6.000000e+001 -2.620000e+001  0.000000e+000
      vertex  6.000000e+001 -2.920000e+001  2.000000e+001
    endloop
  endfacet
  facet normal  1.000000e+000  -0.000000e+000  0.000000e+000
    outer loop
      vertex  6.000000e+001 -2.920000e+001  2.000000e+001
      vertex  6.000000e+001 -2.620000e+001  0.000000e+000
      vertex  6.000000e+001 -2.620000e+001  2.000000e+001
    endloop
  endfacet
  facet normal -1.000000e+000  0.000000e+000  0.000000e+000
    outer loop
      vertex  5.000000e+001 -4.200000e+000  2.000000e+001
      vertex  5.000000e+001 -4.200000e+000  0.000000e+000
      vertex  5.000000e+001 -2.920000e+001  2.000000e+001
    endloop
  endfacet
  facet normal -1.000000e+000  0.000000e+000  0.000000e+000
    outer loop
      vertex  5.000000e+001 -2.920000e+001  2.000000e+001
      vertex  5.000000e+001 -4.200000e+000  0.000000e+000
      vertex  5.000000e+001 -2.920000e+001  0.000000e+000
    endloop
  endfacet
  facet normal -1.000000e+000  0.000000e+000  0.000000e+000
    outer loop
      vertex  1.150000e+001  0.000000e+000  0.000000e+000
      vertex  1.150000e+001 -4.200000e+000  0.000000e+000
      vertex  1.150000e+001  0.000000e+000  2.000000e+001
    endloop
  endfacet
  facet normal -1.000000e+000  -0.000000e+000  0.000000e+000
    outer loop
      vertex  1.150000e+001  0.000000e+000  2.000000e+001
      vertex  1.150000e+001 -4.200000e+000  0.000000e+000
      vertex  1.150000e+001 -4.200000e+000  2.000000e+001
    endloop
  endfacet
  facet normal  1.000000e+000  -0.000000e+000  0.000000e+000
    outer loop
      vertex -5.000000e+001 -4.200000e+000  2.000000e+001
      vertex -5.000000e+001 -2.920000e+001  2.000000e+001
      vertex -5.000000e+001 -4.200000e+000  0.000000e+000
    endloop
  endfacet
  facet normal  1.000000e+000  0.000000e+000  0.000000e+000
    outer loop
      vertex -5.000000e+001 -4.200000e+000  0.000000e+000
      vertex -5.000000e+001 -2.920000e+001  2.000000e+001
      vertex -5.000000e+001 -2.920000e+001  0.000000e+000
    endloop
  endfacet
  facet normal -1.000000e+000  0.000000e+000  0.000000e+000
    outer loop
      vertex -6.000000e+001 -2.620000e+001  0.000000e+000
      vertex -6.000000e+001 -2.920000e+001  0.000000e+000
      vertex -6.000000e+001 -2.620000e+001  2.000000e+001
    endloop
  endfacet
  facet normal -1.000000e+000  -0.000000e+000  0.000000e+000
    outer loop
      vertex -6.000000e+001 -2.620000e+001  2.000000e+001
      vertex -6.000000e+001 -2.920000e+001  0.000000e+000
      vertex -6.000000e+001 -2.920000e+001  2.000000e+001
    endloop
  endfacet
endsolid CATIA STL
